<svg width="1440" height="1346" viewBox="0 0 1440 1346" xmlns="http://www.w3.org/2000/svg"><title>Bg@2x</title><g fill="none" fill-rule="evenodd"><path d="M243.892 120.14c-6.866-4.182-15.93-1.419-19.102 5.975-20.135 47.026-2.074 101.467 43.197 129.061 45.279 27.621 101.95 18.758 134.564-20.665 5.118-6.196 3.43-15.53-3.435-19.712l-155.224-94.658zM-799.414 910.073c-63.864 17.892-98.197 88.132-71.425 148.863C-700.4 1445-270.316 1642.326 150.878 1524.441c421.398-117.782 686.764-509.57 632.403-928.147-8.583-65.742-74.388-108.07-138.252-90.177L-799.414 910.073z" fill-opacity=".05" fill="#005AC8"/><path d="M1007.89 13.554C961.444-14.74 900.116 3.951 878.666 53.972c-136.218 318.135-14.03 686.434 292.232 873.113 306.315 186.86 689.7 126.895 910.337-139.805 34.627-41.915 23.21-105.054-23.237-133.35L1007.89 13.555zM591.676 1556.568c-25.201 18.076-29.054 54.432-7.577 76.837 136.64 142.383 357.185 160.307 523.41 41.143 166.333-119.152 220.279-333.753 129.447-508.988-14.286-27.515-49.972-35.59-75.173-17.514l-570.107 408.522z" fill-opacity=".1" fill="#FFB836"/></g></svg>