<svg width="38" height="59" viewBox="0 0 38 59" xmlns="http://www.w3.org/2000/svg"><title>Calculator-LRG</title><g fill="none" fill-rule="evenodd"><path d="M31.979 45.5h-26c-2.206 0-4-1.816-4-4.049V4.549c0-2.233 1.794-4.049 4-4.049h26c2.206 0 4 1.816 4 4.049v26.522c0 .559-.448 1.012-1 1.012s-1-.453-1-1.012V4.549c0-1.116-.897-2.025-2-2.025h-26c-1.103 0-2 .909-2 2.025v36.902c0 1.116.897 2.025 2 2.025h26c1.103 0 2-.909 2-2.025v-5.207c0-.559.448-1.012 1-1.012s1 .453 1 1.012v5.207c0 2.233-1.794 4.049-4 4.049" fill="#005BC6"/><path d="M10.479 10.84c-.551 0-1 .454-1 1.012v8.097c0 .559.449 1.012 1 1.012h17c.55 0 1-.453 1-1.012v-8.097c0-.558-.45-1.012-1-1.012h-17zm17 12.146h-17c-1.654 0-3-1.362-3-3.037v-8.097c0-1.674 1.346-3.036 3-3.036h17c1.654 0 3 1.362 3 3.036v8.097c0 1.675-1.346 3.037-3 3.037zM21.424 7.5h-5c-.552 0-1-.441-1-1 0-.559.448-1 1-1h5c.552 0 1 .441 1 1 0 .559-.448 1-1 1M10.171 29.858h2v-2.024h-2v2.024zm2 2.024h-2c-1.103 0-2-.908-2-2.024v-2.024c0-1.116.897-2.025 2-2.025h2c1.103 0 2 .91 2 2.025v2.024c0 1.116-.897 2.024-2 2.024zM17.979 29.858h2v-2.024h-2v2.024zm2 2.024h-2c-1.103 0-2-.908-2-2.024v-2.024c0-1.116.897-2.025 2-2.025h2c1.103 0 2 .91 2 2.025v2.024c0 1.116-.897 2.024-2 2.024zM25.508 29.858h2v-2.024h-2v2.024zm2 2.024h-2c-1.103 0-2-.908-2-2.024v-2.024c0-1.116.897-2.025 2-2.025h2c1.103 0 2 .91 2 2.025v2.024c0 1.116-.897 2.024-2 2.024zM10.171 37.956h2v-2.024h-2v2.024zm2 2.024h-2c-1.103 0-2-.908-2-2.024v-2.024c0-1.116.897-2.025 2-2.025h2c1.103 0 2 .91 2 2.025v2.024c0 1.116-.897 2.024-2 2.024zM17.979 37.956h2v-2.024h-2v2.024zm2 2.024h-2c-1.103 0-2-.908-2-2.024v-2.024c0-1.116.897-2.025 2-2.025h2c1.103 0 2 .91 2 2.025v2.024c0 1.116-.897 2.024-2 2.024zM25.508 37.956h2v-2.024h-2v2.024zm2 2.024h-2c-1.103 0-2-.908-2-2.024v-2.024c0-1.116.897-2.025 2-2.025h2c1.103 0 2 .91 2 2.025v2.024c0 1.116-.897 2.024-2 2.024z" fill="#005BC6"/><path d="M19.016 58.943A38.028 38.028 0 0 1 .963 54.38a1 1 0 0 1 .953-1.758 36.026 36.026 0 0 0 17.1 4.322 36.002 36.002 0 0 0 17.026-4.284 1.002 1.002 0 0 1 .95 1.762 38.035 38.035 0 0 1-17.976 4.522" fill="#FFB913"/></g></svg>