<svg width="41" height="59" viewBox="0 0 41 59" xmlns="http://www.w3.org/2000/svg"><title>31BFAF7A-421F-4435-BA03-E14F7644E7BC</title><g fill="none" fill-rule="evenodd"><path d="M21.011 58.943A38.018 38.018 0 0 1 2.96 54.38a1 1 0 0 1 .953-1.758 36.019 36.019 0 0 0 17.1 4.322 36.01 36.01 0 0 0 17.025-4.283 1 1 0 1 1 .95 1.76 38.018 38.018 0 0 1-17.976 4.523" fill="#FFB913"/><path d="M36.974 42.5h-32c-2.206 0-4-1.794-4-4v-32c0-2.206 1.794-4 4-4h32c2.206 0 4 1.794 4 4v21.462a1 1 0 1 1-2 0V6.5c0-1.103-.897-2-2-2h-32c-1.103 0-2 .897-2 2v32c0 1.103.897 2 2 2h32c1.103 0 2-.897 2-2v-4.107a1 1 0 1 1 2 0V38.5c0 2.206-1.794 4-4 4" fill="#005BC6"/><path fill="#005BC6" d="M2.474 11h37V9h-37zM12.261 8a1.5 1.5 0 0 1-1.5-1.5v-5a1.5 1.5 0 1 1 3 0v5a1.5 1.5 0 0 1-1.5 1.5M30.261 8a1.5 1.5 0 0 1-1.5-1.5v-5a1.5 1.5 0 1 1 3 0v5a1.5 1.5 0 0 1-1.5 1.5"/></g></svg>