<svg width="40" height="43" viewBox="0 0 40 43" xmlns="http://www.w3.org/2000/svg"><title>Calendar no smile</title><g fill="#005BC6" fill-rule="evenodd"><path d="M36 42.5H4c-2.206 0-4-1.794-4-4v-32c0-2.206 1.794-4 4-4h32c2.206 0 4 1.794 4 4v21.462a1 1 0 1 1-2 0V6.5c0-1.103-.897-2-2-2H4c-1.103 0-2 .897-2 2v32c0 1.103.897 2 2 2h32c1.103 0 2-.897 2-2v-4.107a1 1 0 1 1 2 0V38.5c0 2.206-1.794 4-4 4"/><path d="M1.5 11h37V9h-37zM11.287 8a1.5 1.5 0 0 1-1.5-1.5v-5a1.5 1.5 0 1 1 3 0v5a1.5 1.5 0 0 1-1.5 1.5M29.287 8a1.5 1.5 0 0 1-1.5-1.5v-5a1.5 1.5 0 1 1 3 0v5a1.5 1.5 0 0 1-1.5 1.5"/></g></svg>