<svg width="44" height="56" viewBox="0 0 44 56" xmlns="http://www.w3.org/2000/svg"><title>1356E176-646B-45BD-A31C-CA0F9D2CCB00</title><g fill="none" fill-rule="evenodd"><path d="M13.767 42.464c-.272 0-.496-.061-.66-.128-.462-.191-1.24-.76-1.24-2.42v-6.078c0-1.103-.897-2-2-2h-5.09c-2.206 0-4-1.794-4-4V4.536c0-2.206 1.794-4 4-4h35.18c2.207 0 4 1.794 4 4v10.09a1 1 0 1 1-2 0V4.536c0-1.102-.896-2-2-2H4.778c-1.103 0-2 .898-2 2v23.302c0 1.103.897 2 2 2h5.09c2.207 0 4 1.794 4 4v6.079c0 .21.02.363.045.468.09-.058.212-.152.36-.301l7.772-7.822c1.35-1.36 3.909-2.424 5.824-2.424h12.09c1.103 0 2-.897 2-2v-8.043a1 1 0 1 1 2 0v8.043c0 2.206-1.794 4-4 4h-12.09c-1.376 0-3.435.856-4.406 1.834l-7.771 7.822c-.757.762-1.423.97-1.924.97" fill="#005BC6"/><path d="M17.367 16.835a2 2 0 1 0-3.999 0 2 2 0 0 0 3.999 0M24.367 16.835a2 2 0 1 0-3.999 0 2 2 0 0 0 3.999 0M31.367 16.835a2 2 0 1 0-3.999 0 2 2 0 0 0 3.999 0" fill="#005BC6"/><path d="M22.35 55.943A38.018 38.018 0 0 1 4.296 51.38a1 1 0 0 1 .953-1.758 36.019 36.019 0 0 0 17.1 4.322 36.01 36.01 0 0 0 17.025-4.283 1 1 0 1 1 .95 1.76 38.018 38.018 0 0 1-17.976 4.523" fill="#FFB913"/></g></svg>