<svg width="44" height="58" viewBox="0 0 44 58" xmlns="http://www.w3.org/2000/svg"><title>0F849C31-EA6C-4952-AEA9-B43E6AFC0D61</title><g fill="none" fill-rule="evenodd"><path d="M22 44.5c-12.131 0-22-9.87-22-22S9.869.5 22 .5s22 9.87 22 22a21.94 21.94 0 0 1-8.017 16.985 1.005 1.005 0 1 1-1.279-1.552A19.938 19.938 0 0 0 41.989 22.5c0-11.022-8.967-19.989-19.989-19.989S2.011 11.478 2.011 22.5 10.978 42.489 22 42.489c2.71 0 5.337-.533 7.81-1.583a1.006 1.006 0 0 1 .786 1.851A21.855 21.855 0 0 1 22 44.5z" fill="#005BC6"/><path d="M29.03 30.217a1 1 0 0 1-.71-.295l-14.08-14.08a1.005 1.005 0 1 1 1.422-1.422l14.08 14.08a1.005 1.005 0 0 1-.711 1.717" fill="#005BC6"/><path d="M14.95 30.217a1.005 1.005 0 0 1-.711-1.717l14.08-14.08a1.005 1.005 0 1 1 1.423 1.422l-14.08 14.08a1 1 0 0 1-.711.295" fill="#005BC6"/><path d="M22.037 57.943A38.018 38.018 0 0 1 3.985 53.38a1 1 0 0 1 .952-1.758 36.028 36.028 0 0 0 17.1 4.322 36.006 36.006 0 0 0 17.027-4.284 1 1 0 0 1 .948 1.762 38.028 38.028 0 0 1-17.975 4.522" fill="#FFB913"/></g></svg>