<svg width="38" height="59" viewBox="0 0 38 59" xmlns="http://www.w3.org/2000/svg"><title>3BB30716-EEF9-4057-821A-ED5C811042CF</title><g fill="none" fill-rule="evenodd"><path d="M32.32 45.5H5.84a4.053 4.053 0 0 1-4.05-4.049V4.549A4.053 4.053 0 0 1 5.84.5h26.48a4.054 4.054 0 0 1 4.05 4.049v26.522a1.013 1.013 0 0 1-2.025 0V4.549a2.027 2.027 0 0 0-2.024-2.025H5.84a2.027 2.027 0 0 0-2.025 2.025v36.902c0 1.116.908 2.025 2.025 2.025h26.48a2.027 2.027 0 0 0 2.025-2.025v-5.207a1.012 1.012 0 1 1 2.025 0v5.207a4.054 4.054 0 0 1-4.05 4.049" fill="#005BC6"/><path d="M22.627 9.601c-.558 0-1.012.454-1.012 1.012v4.05c0 .557.454 1.011 1.012 1.011h4.049c.558 0 1.012-.454 1.012-1.011v-4.05c0-.557-.454-1.011-1.012-1.011h-4.05zm4.049 8.097h-4.05a3.04 3.04 0 0 1-3.035-3.036v-4.049a3.04 3.04 0 0 1 3.036-3.035h4.049a3.04 3.04 0 0 1 3.036 3.035v4.05a3.04 3.04 0 0 1-3.036 3.035zM15.546 11.5H9.473a1.002 1.002 0 0 1-1.012-1c0-.559.453-1 1.012-1h6.073c.559 0 1.012.441 1.012 1 0 .559-.453 1-1.012 1M15.546 17.5H9.473a1.002 1.002 0 0 1-1.012-1c0-.559.453-1 1.012-1h6.073c.559 0 1.012.441 1.012 1 0 .559-.453 1-1.012 1M28.703 23.5H9.473a1.002 1.002 0 0 1-1.013-1c0-.559.454-1 1.012-1h19.231c.56 0 1.012.441 1.012 1 0 .559-.453 1-1.012 1M28.703 29.5H9.473a1.002 1.002 0 0 1-1.013-1c0-.559.454-1 1.012-1h19.231c.56 0 1.012.441 1.012 1 0 .559-.453 1-1.012 1M21.619 35.5H9.473a1.002 1.002 0 0 1-1.013-1c0-.559.454-1 1.012-1H21.62c.558 0 1.012.441 1.012 1 0 .559-.454 1-1.012 1" fill="#005BC6"/><path d="M18.91 58.943A38.018 38.018 0 0 1 .858 54.38a1 1 0 0 1 .953-1.758 36.019 36.019 0 0 0 17.099 4.322 36.01 36.01 0 0 0 17.026-4.283 1 1 0 1 1 .95 1.76 38.018 38.018 0 0 1-17.976 4.523" fill="#FFB913"/></g></svg>