<svg width="38" height="58" viewBox="0 0 38 58" xmlns="http://www.w3.org/2000/svg"><title>98329144-7EAA-4CB2-876A-C3B0292B44F9</title><g fill="#DE344F" fill-rule="evenodd"><path d="M19.711 31.322c-2.864 0-5.194-2.169-5.194-4.834V5.401c0-2.666 2.33-4.835 5.194-4.835s5.193 2.17 5.193 4.835v15.964a1 1 0 1 1-2 0V5.401c0-1.563-1.432-2.835-3.193-2.835-1.761 0-3.194 1.272-3.194 2.835v21.087c0 1.563 1.433 2.834 3.194 2.834s3.193-1.27 3.193-2.834a1 1 0 1 1 2 0c0 2.665-2.329 4.834-5.193 4.834M19.711 36.115a3.17 3.17 0 0 0-2.258.936 3.197 3.197 0 0 0 0 4.516 3.199 3.199 0 0 0 4.516 0 3.197 3.197 0 0 0 0-4.516 3.17 3.17 0 0 0-2.258-.936m0 8.385c-1.33 0-2.66-.506-3.672-1.519a5.2 5.2 0 0 1 0-7.345 5.198 5.198 0 0 1 7.344 0 5.2 5.2 0 0 1 0 7.345 5.174 5.174 0 0 1-3.672 1.52M19.016 57.943A38.028 38.028 0 0 1 .963 53.38a1 1 0 0 1 .953-1.758 36.026 36.026 0 0 0 17.1 4.322 36.002 36.002 0 0 0 17.026-4.284 1.002 1.002 0 0 1 .95 1.762 38.035 38.035 0 0 1-17.976 4.522"/></g></svg>