<svg width="45" height="58" viewBox="0 0 45 58" xmlns="http://www.w3.org/2000/svg"><title>9F186101-CFCA-48AA-9EAB-AA0C17CDFA78</title><g fill="none" fill-rule="evenodd"><path d="M22.817 57.943A38.018 38.018 0 0 1 4.765 53.38a1 1 0 0 1 .953-1.758 36.028 36.028 0 0 0 17.1 4.322 36.006 36.006 0 0 0 17.026-4.284 1 1 0 0 1 .948 1.762 38.028 38.028 0 0 1-17.975 4.522" fill="#FFB913"/><path d="M22.905 44.5c-12.13 0-22-9.87-22-22s9.87-22 22-22c12.131 0 22 9.87 22 22a21.94 21.94 0 0 1-8.017 16.985 1.005 1.005 0 1 1-1.279-1.552A19.94 19.94 0 0 0 42.894 22.5c0-11.022-8.967-19.989-19.989-19.989S2.916 11.478 2.916 22.5s8.967 19.989 19.99 19.989c2.71 0 5.336-.533 7.808-1.583a1.005 1.005 0 1 1 .787 1.851 21.851 21.851 0 0 1-8.596 1.743" fill="#005BC6"/><path d="M22.761 24.47a1 1 0 0 1-1-1v-10a1 1 0 1 1 2 0v10a1 1 0 0 1-1 1M24.479 27.97a1.5 1.5 0 1 0-3.001.002 1.5 1.5 0 0 0 3-.001" fill="#005BC6"/></g></svg>