<svg width="47" height="58" viewBox="0 0 47 58" xmlns="http://www.w3.org/2000/svg"><title>B7A7FDE5-E0A3-40A5-8CC3-88129441D108</title><g fill="none" fill-rule="evenodd"><path d="M29.902 44.73H8.74c-2.206 0-4-1.794-4-4V4.27c0-2.206 1.794-4 4-4h21.163c2.206 0 4 1.794 4 4v13.203a1 1 0 1 1-2 0V4.27c0-1.103-.897-2-2-2H8.74c-1.103 0-2 .897-2 2v36.46c0 1.103.897 2 2 2h21.163c1.103 0 2-.897 2-2V27.585a1 1 0 1 1 2 0V40.73c0 2.206-1.794 4-4 4" fill="#005BC6"/><path d="M43.761 23.5h-22a1 1 0 1 1 0-2h22a1 1 0 1 1 0 2" fill="#005BC6"/><path d="M37.738 30.5c-.264 0-.529-.098-.73-.293a.98.98 0 0 1 0-1.416l6.722-6.513-6.696-6.045a.979.979 0 0 1-.052-1.415 1.058 1.058 0 0 1 1.46-.05l8.263 7.459-8.237 7.98a1.047 1.047 0 0 1-.73.293" fill="#005BC6"/><path d="M18.598 57.943A38.028 38.028 0 0 1 .545 53.38a1 1 0 0 1 .953-1.758 36.026 36.026 0 0 0 17.1 4.322 36.002 36.002 0 0 0 17.026-4.284 1.002 1.002 0 0 1 .95 1.762 38.035 38.035 0 0 1-17.976 4.522" fill="#FFB913"/></g></svg>