<svg width="47" height="55" viewBox="0 0 47 55" xmlns="http://www.w3.org/2000/svg"><title>A8D094D2-B39A-4671-8127-03998A466F4D</title><g fill="none" fill-rule="evenodd"><path d="M41.44 38.5h-36c-2.757 0-5-2.243-5-5v-28c0-2.757 2.243-5 5-5h11c2.966 0 4.681 1.254 6.194 2.359 1.254.917 2.244 1.641 3.806 1.641h15c2.757 0 5 2.243 5 5v9.016H6.438a1 1 0 1 1 0-2H44.44V9.5c0-1.654-1.346-3-3-3h-15c-2.215 0-3.624-1.03-4.986-2.025-1.389-1.016-2.7-1.975-5.014-1.975h-11c-1.654 0-3 1.346-3 3v28c0 1.654 1.346 3 3 3h36c1.654 0 3-1.346 3-3V22.266a1 1 0 1 1 2 0V33.5c0 2.757-2.243 5-5 5" fill="#005BC6"/><path d="M23.477 54.943A38.027 38.027 0 0 1 5.425 50.38a1 1 0 0 1 .953-1.758 36.025 36.025 0 0 0 17.1 4.322 36.006 36.006 0 0 0 17.026-4.284 1.002 1.002 0 0 1 .95 1.762 38.039 38.039 0 0 1-17.977 4.522" fill="#FFB913"/></g></svg>