<svg width="55" height="58" viewBox="0 0 55 58" xmlns="http://www.w3.org/2000/svg"><title>ACD8FD58-02D7-4A67-A40F-F55B345BF248</title><g fill="none" fill-rule="evenodd"><path d="M52.12 41.28H2.769C1.6 41.28.685 40.82.26 40.017c-.427-.8-.297-1.816.356-2.786l4.254-6.309a1 1 0 1 1 1.657 1.117l-4.253 6.31c-.29.431-.276.677-.25.73.029.051.224.2.744.2H52.12c.48 0 .7-.129.733-.19.033-.064.012-.32-.259-.713l-4.502-6.527c-.748-1.085-2.561-2.037-3.88-2.037H9.69c-2.205 0-4-1.794-4-4V4.278c0-2.206 1.795-4 4-4h34.523c2.206 0 4 1.794 4 4v19.503a1 1 0 1 1-2 0V4.278c0-1.103-.898-2-2-2H9.69c-1.101 0-2 .897-2 2v21.535c0 1.103.899 2 2 2h34.523c1.976 0 4.404 1.275 5.526 2.903l4.502 6.526c.664.964.804 1.975.384 2.776-.42.802-1.334 1.261-2.504 1.261" fill="#005BC6"/><path d="M27.474 57.943A38.018 38.018 0 0 1 9.422 53.38a1 1 0 0 1 .953-1.758 36.019 36.019 0 0 0 17.1 4.322A36.01 36.01 0 0 0 44.5 51.66a1 1 0 1 1 .95 1.76 38.018 38.018 0 0 1-17.976 4.523" fill="#FFB913"/></g></svg>