<svg width="200" height="17" viewBox="0 0 129 17" xmlns="http://www.w3.org/2000/svg"><title>91C26114-F05B-4411-965A-3EAD3A5AB821</title><g fill="none" fill-rule="evenodd"><path d="M44.888.87a.17.17 0 0 0-.171.183c.084.948.815 1.652 1.706 1.652.892 0 1.622-.704 1.706-1.652a.17.17 0 0 0-.17-.183h-3.072z" fill="#FFB913"/><path fill="#005BC6" d="M38.854.87H36.3v12h7.407v-2.232h-4.852zM45.178 12.869h2.49V4.168h-2.49zM58.048 4.185h-2.83l-3.186 3.283V.87h-2.49v12h2.49v-2.362l1.116-1.18 2.102 3.541h2.944l-3.332-5.336zM62.77 4.088c-2.651 0-4.48 1.78-4.48 4.463 0 2.636 1.764 4.415 4.546 4.415 1.568 0 2.846-.566 3.719-1.536l-1.31-1.326a3.084 3.084 0 0 1-2.2.922c-1.115 0-1.956-.647-2.247-1.747h6.242c.21-3.17-1.212-5.19-4.27-5.19zm-2.021 3.72c.195-1.149.938-1.893 2.038-1.893 1.148 0 1.892.744 1.925 1.893h-3.963zM72.147 10.764c-.416.1-.966.133-1.17-.311-.004-.008-.008-.015-.01-.023a1.067 1.067 0 0 1-.072-.409V.87h-2.481v9.402c0 1.636 1.09 2.68 2.814 2.694 1.01-.007 1.73-.284 1.73-.284l-.81-1.918z"/><path d="M79.073 4.169l-2.054 5.984-2.28-5.984h-2.57l3.605 8.523-.243.485c-.242.517-.63.776-1.148.776a1.47 1.47 0 0 1-.692-.17l-.954 1.87c.548.32 1.131.467 1.824.467 1.504 0 2.571-.744 3.186-2.28l3.817-9.671h-2.49z" fill="#005BC6"/><path d="M1.423.87C.6.87-.067 1.57.006 2.389c.697 7.879 6.772 13.731 14.18 13.731 7.41 0 13.485-5.852 14.181-13.731C28.44 1.57 27.771.87 26.948.87H1.424z" fill="#FFB913"/><path d="M94.111 11.125c-1.21 0-2.02-.93-2.02-2.31 0-1.36.83-2.31 2.02-2.31 1.17 0 1.99.95 1.99 2.31 0 1.38-.8 2.31-1.99 2.31m0-6.52c-2.73 0-4.49 1.64-4.49 4.18 0 2.51 1.8 4.19 4.49 4.19 2.67 0 4.47-1.68 4.47-4.19 0-2.5-1.8-4.18-4.47-4.18M105.071 10.175c-.18.74-.94 1.25-1.85 1.25-.81 0-1.31-.43-1.31-1.12 0-.68.45-1.03 1.34-1.03h1.83l-.01.9zm-1.13-5.6c-1.25 0-2.38.27-3.75.9l.67 1.55c.86-.42 1.75-.66 2.45-.66 1.12 0 1.77.53 1.77 1.45v.25h-2.34c-2.01.01-3.12.88-3.12 2.43 0 1.53 1.09 2.52 2.77 2.52 1.11 0 1.96-.37 2.48-1.05l.22-.29v1.21h2.4v-5.38c-.01-1.86-1.31-2.93-3.55-2.93zM117.391 7.695v5.19h-2.45v-4.44c0-1.04-.63-1.72-1.61-1.72-1.01 0-1.71.7-1.84 1.83v4.33h-2.46v-8.18h2.46v1.69l.23-.37c.57-.95 1.48-1.43 2.71-1.45 1.8 0 2.96 1.23 2.96 3.12M125.811 10.425c0 1.56-1.34 2.57-3.43 2.57-1.37 0-2.66-.39-3.62-1.1l.75-1.51c.94.63 2 .99 2.94.99.65 0 1.04-.26 1.04-.7 0-.57-.73-.79-1.57-1.03-1.24-.36-2.78-.81-2.77-2.51 0-1.58 1.26-2.56 3.3-2.56 1.14 0 2.31.32 3.31.88l-.81 1.54c-.99-.51-1.91-.8-2.61-.8-.6 0-.95.26-.95.7 0 .54.69.74 1.55.99 1.29.37 2.88.83 2.87 2.54M89.231 12.595c-.27.09-.98.28-1.88.29-1.98-.02-3.2-1.19-3.2-3.06V.875h2.68v8.66c0 .05.01.09.01.14.01.13.04.25.08.38l.02.04c.21.45.7.61 1.42.46l.87 2.04zM127.158 3.408h.144c.17 0 .305-.055.305-.193 0-.12-.088-.202-.28-.202a.703.703 0 0 0-.17.017v.378zm-.007.75h-.307V2.835c.122-.024.29-.039.507-.039.25 0 .362.04.459.097.07.056.129.16.129.289 0 .144-.112.258-.273.305v.015c.127.05.2.146.24.323.041.202.065.282.097.331h-.331c-.039-.05-.065-.17-.103-.322-.024-.147-.106-.21-.274-.21h-.144v.532zm-.813-.694c0 .588.435 1.055 1.028 1.055.581 0 1.005-.467 1.005-1.046 0-.587-.424-1.063-1.011-1.063s-1.022.476-1.022 1.054zm2.373 0c0 .75-.587 1.335-1.351 1.335-.757 0-1.36-.586-1.36-1.335 0-.731.603-1.319 1.36-1.319.764 0 1.351.588 1.351 1.32z" fill="#005BC6"/></g></svg>