<svg width="10" height="34" viewBox="0 0 87 34" xmlns="http://www.w3.org/2000/svg"><title>44BD596B-CAEE-4B40-9272-063A503BB97E</title><g fill="none" fill-rule="evenodd"><path d="M16.67.126a.308.308 0 0 0-.31.33c.152 1.715 1.474 2.988 3.086 2.988 1.612 0 2.934-1.273 3.085-2.987a.307.307 0 0 0-.308-.331H16.67z" fill="#FFB913"/><path d="M16.54.068a.325.325 0 0 0-.326.35c.16 1.818 1.562 3.168 3.27 3.168 1.71 0 3.112-1.35 3.272-3.168a.325.325 0 0 0-.327-.35H16.54z" fill="#FFB913"/><path d="M42.889 30.899c0 1.76-1.252 2.928-3.12 2.928-1.877 0-3.13-1.167-3.13-2.928s1.253-2.918 3.13-2.918c1.868 0 3.12 1.157 3.12 2.918m-4.403.02c0 .893.52 1.487 1.284 1.487.753 0 1.273-.594 1.273-1.486 0-.88-.52-1.485-1.273-1.485-.764 0-1.284.605-1.284 1.485M48.936 30.029v3.735h-1.793v-.658c-.372.488-.976.743-1.75.743-1.22 0-1.964-.743-1.964-1.793 0-1.083.775-1.72 2.197-1.73h1.506v-.085c0-.562-.37-.902-1.114-.902-.477 0-1.103.17-1.708.478l-.52-1.21c.891-.414 1.698-.647 2.653-.647 1.57 0 2.482.775 2.493 2.069m-1.804 1.793v-.51h-1.156c-.552 0-.828.192-.828.616 0 .414.297.679.807.679.573 0 1.061-.318 1.177-.785M55.652 30.156v3.607h-1.825v-3.098c0-.668-.393-1.082-1.008-1.082-.668 0-1.093.477-1.167 1.157v3.023h-1.836v-5.718h1.836v.933c.403-.668 1.061-1.008 1.91-1.018 1.262 0 2.09.86 2.09 2.196M61.36 28.607l-.626 1.188c-.69-.371-1.326-.573-1.804-.573-.328 0-.562.128-.562.393 0 .785 3.013.403 3.003 2.398 0 1.178-1.029 1.825-2.409 1.825-.955 0-1.878-.276-2.568-.807l.584-1.167c.647.457 1.39.711 2.027.711.36 0 .626-.127.626-.392 0-.838-2.96-.404-2.95-2.409 0-1.178.997-1.814 2.324-1.814.827 0 1.655.233 2.355.647M4.974.068H.075v23.006h14.2v-4.279h-9.3zM17.098 23.074h4.775V6.393h-4.775zM41.773 6.425h-5.426l-6.108 6.294V.069h-4.775v23.006h4.775v-4.527l2.139-2.263 4.03 6.79h5.644l-6.387-10.232zM50.827 6.239c-5.085 0-8.588 3.41-8.588 8.556 0 5.054 3.379 8.466 8.712 8.466 3.008 0 5.457-1.085 7.13-2.947l-2.51-2.541c-1.147 1.146-2.636 1.767-4.217 1.767-2.14 0-3.751-1.24-4.31-3.348h11.968c.403-6.078-2.325-9.954-8.185-9.954zm-3.876 7.13c.372-2.2 1.799-3.627 3.907-3.627 2.2 0 3.628 1.426 3.69 3.627H46.95zM68.804 19.038c-.797.192-1.852.254-2.245-.598-.006-.015-.014-.029-.02-.045l-.008-.02a2.104 2.104 0 0 1-.128-.763V.068h-4.758v18.026c0 3.137 2.09 5.137 5.395 5.165 1.938-.014 3.319-.546 3.319-.546l-1.555-3.675z" fill="#FFF"/><path d="M82.082 6.393l-3.938 11.472-4.371-11.472h-4.93l6.914 16.34-.465.93c-.465.992-1.21 1.488-2.201 1.488a2.81 2.81 0 0 1-1.328-.326l-1.83 3.588c1.053.613 2.17.893 3.499.893 2.883 0 4.929-1.427 6.108-4.372l7.317-18.54h-4.775zM35.918 32c-.333.08-.774.106-.938-.25l-.008-.018-.003-.009a.868.868 0 0 1-.054-.319v-5.956h-1.988v6.158c0 1.31.874 2.146 2.254 2.157a4.326 4.326 0 0 0 1.387-.228L35.918 32zM64.296 28.752c-.382 0-.711-.14-.986-.418a1.37 1.37 0 0 1-.413-.998c0-.39.139-.724.416-1 .276-.277.61-.415 1-.415s.723.138 1 .414c.277.277.415.61.415.998 0 .396-.139.731-.416 1.006a1.388 1.388 0 0 1-1.016.413zm0-.202c.396 0 .71-.145.944-.436.19-.237.286-.496.286-.78 0-.28-.095-.539-.286-.776a1.13 1.13 0 0 0-.927-.435 1.13 1.13 0 0 0-.928.435c-.19.237-.286.497-.286.778 0 .33.118.616.354.855.237.239.518.359.843.359zm-.45-.443v-1.53h.483c.154 0 .27.031.347.093.077.063.116.157.116.282a.472.472 0 0 1-.068.25.59.59 0 0 1-.2.193l.46.712H64.7l-.414-.638h-.193v.638h-.246zm.23-.829h.07c.136 0 .237-.025.304-.076.068-.05.101-.126.101-.226 0-.08-.028-.14-.084-.18a.44.44 0 0 0-.255-.06h-.136v.542z" fill="#FFF"/></g></svg>