<svg width="45" height="58" viewBox="0 0 45 58" xmlns="http://www.w3.org/2000/svg"><title>Lock-LRG</title><g fill="none" fill-rule="evenodd"><path d="M22.712 44.5C10.65 44.5.837 34.63.837 22.5S10.65.5 22.712.5s21.875 9.87 21.875 22a21.987 21.987 0 0 1-7.972 16.985.995.995 0 0 1-1.407-.136 1.01 1.01 0 0 1 .136-1.416A19.986 19.986 0 0 0 42.587 22.5c0-11.022-8.916-19.989-19.875-19.989S2.837 11.478 2.837 22.5s8.916 19.989 19.875 19.989c2.694 0 5.307-.533 7.766-1.583a.995.995 0 0 1 1.31.533c.217.51-.02 1.101-.529 1.318a21.622 21.622 0 0 1-8.547 1.743" fill="#005BC6"/><path d="M19.725 29.956H25.7l-1.59-8.002a1.009 1.009 0 0 1 .414-1.027 3.23 3.23 0 0 0 1.395-2.659c0-1.777-1.438-3.225-3.207-3.225-1.768 0-3.207 1.448-3.207 3.226a3.23 3.23 0 0 0 1.396 2.659c.33.227.494.631.415 1.026l-1.59 8.002zm7.194 2.012h-8.414a.997.997 0 0 1-.773-.369 1.009 1.009 0 0 1-.207-.834l1.71-8.602a5.245 5.245 0 0 1-1.73-3.895c0-2.886 2.336-5.236 5.207-5.236s5.207 2.35 5.207 5.236a5.244 5.244 0 0 1-1.729 3.895l1.71 8.602c.058.296-.018.601-.207.834a1 1 0 0 1-.774.369z" fill="#005BC6"/><path d="M22.75 57.693A38.018 38.018 0 0 1 4.698 53.13a1 1 0 0 1 .953-1.758 36.019 36.019 0 0 0 17.099 4.322 36.01 36.01 0 0 0 17.026-4.283 1 1 0 1 1 .95 1.76 38.018 38.018 0 0 1-17.976 4.523" fill="#FFB913"/></g></svg>