<svg width="47" height="49" viewBox="0 0 47 49" xmlns="http://www.w3.org/2000/svg"><title>Payments-LRG</title><g fill="none" fill-rule="evenodd"><path d="M2.761 14.5h42v-3h-42v3zm0-10.506c0-1.1.564-1.494 1.664-1.494h38c1.11 0 2.336.394 2.336 1.494V9.5h-42V3.994zM42.425.5h-38C2.225.5.761 1.794.761 3.994v24.51c0 2.2 1.464 3.996 3.664 3.996h38c2.21 0 4.336-1.776 4.336-3.966v-2.96c0-.56-.45-1-1-1s-1 .44-1 1v2.96c0 1.09-1.226 1.966-2.336 1.966h-38c-1.1 0-1.664-.896-1.664-1.996V16.5h42v3.174c0 .56.45 1 1 1s1-.44 1-1V3.994c0-2.2-2.126-3.494-4.336-3.494z" fill="#005BC6"/><path d="M13.965 26.5h-7a1 1 0 1 1 0-2h7a1 1 0 1 1 0 2M21.965 26.5h-3a1 1 0 1 1 0-2h3a1 1 0 1 1 0 2" fill="#005BC6"/><path d="M23.731 48.943A38.027 38.027 0 0 1 5.68 44.38a1 1 0 0 1 .953-1.758 36.025 36.025 0 0 0 17.1 4.322 36.006 36.006 0 0 0 17.026-4.284 1.002 1.002 0 0 1 .95 1.762 38.039 38.039 0 0 1-17.977 4.522" fill="#FFB913"/></g></svg>