<svg width="40" height="58" viewBox="0 0 40 58" xmlns="http://www.w3.org/2000/svg"><title>Phone-LRG</title><g fill="none" fill-rule="evenodd"><path d="M31.017 44.28c-.335 0-.702-.01-1.108-.028a10.052 10.052 0 0 1-.539-.039c-5.162-.51-11.147-5.117-18.832-14.497l-.067-.08C2.414 18.712-.569 12.083.466 7.432c.742-3.332 3.47-5.086 5.966-6.467C7.75.193 8.89-.122 10.007-.008c.26.025.522.075.773.147 2.063.587 3.658 2.475 6.091 7.212 2.845 5.538 2 7.481-.69 9.311-.184.124-.37.251-.558.39l-.119.08a2.35 2.35 0 0 0-.437.344c1.334 1.651 4.07 5.265 4.19 5.423l.09.12c.642.751 3.342 3.912 4.513 5.257.206-.047.602-.27.803-.446l.1-.08c.175-.124.298-.216.418-.305l.106-.078c1.085-.8 2.185-1.513 3.746-1.353 1.45.145 3.11 1.03 5.381 2.87 3.364 2.724 5.207 5.436 5.332 7.842a1.001 1.001 0 0 1-1.999.104c-.092-1.798-1.723-4.069-4.592-6.392-1.897-1.537-3.31-2.333-4.32-2.433-.79-.08-1.364.236-2.362.972l-.102.075c-.134.1-.273.203-.418.304-.023.022-1.133 1.004-2.305.925a1.82 1.82 0 0 1-1.258-.648 1070.145 1070.145 0 0 1-4.7-5.476l-.732-.857.061-.04c-.96-1.26-2.748-3.598-3.627-4.67-.348-.424-.486-.9-.398-1.374.19-1.022 1.332-1.71 1.461-1.786.19-.142.4-.287.604-.424 1.56-1.06 2.59-1.762.032-6.74-2.086-4.062-3.449-5.8-4.862-6.204a2.298 2.298 0 0 0-.418-.08c-.679-.07-1.435.163-2.39.722-2.325 1.287-4.44 2.641-5.002 5.164-.874 3.92 2.188 10.447 9.634 20.544 7.36 8.98 12.915 13.355 17.517 13.81.145.015.287.026.426.032 2.707.122 3.094-.14 4.378-1.012.221-.15.461-.312.736-.488a.998.998 0 1 1 1.084 1.68c-.26.167-.489.323-.698.464-1.38.936-2.144 1.381-4.479 1.381" fill="#005BC6"/><path d="M20.045 57.943A38.027 38.027 0 0 1 1.993 53.38a1 1 0 0 1 .953-1.758 36.025 36.025 0 0 0 17.099 4.322 36.006 36.006 0 0 0 17.027-4.284 1.002 1.002 0 0 1 .95 1.762 38.039 38.039 0 0 1-17.977 4.522" fill="#FFB913"/></g></svg>