<svg width="38" height="59" viewBox="0 0 38 59" xmlns="http://www.w3.org/2000/svg"><title>C81C9163-036C-4E4D-8F65-BE6267A64D64</title><g fill="none" fill-rule="evenodd"><path d="M19.38 45.5l-.788-1.019c-.557-.719-13.634-17.737-13.634-29.499C4.958 6.997 11.428.5 19.38.5s14.423 6.497 14.423 14.482c0 4.532-1.932 10.358-5.74 17.316a.998.998 0 0 1-1.358.396 1.004 1.004 0 0 1-.394-1.363c3.644-6.659 5.492-12.159 5.492-16.349 0-6.878-5.573-12.474-12.423-12.474S6.958 8.104 6.958 14.982c0 9.474 9.575 23.304 12.424 27.206.98-1.341 2.758-3.854 4.654-6.943a.997.997 0 0 1 1.376-.329c.47.292.616.91.327 1.382-2.905 4.731-5.462 8.044-5.57 8.183l-.788 1.019z" fill="#005BC6"/><path d="M19.6 12.991c-2.206 0-4 1.801-4 4.017 0 2.215 1.794 4.016 4 4.016s4-1.801 4-4.016c0-2.216-1.794-4.017-4-4.017m0 10.041c-3.31 0-6-2.702-6-6.024 0-3.323 2.69-6.025 6-6.025 3.309 0 6 2.702 6 6.025 0 3.322-2.691 6.024-6 6.024" fill="#005BC6"/><path d="M19.35 58.943A38.018 38.018 0 0 1 1.296 54.38a1 1 0 0 1 .953-1.758 36.019 36.019 0 0 0 17.1 4.322 36.01 36.01 0 0 0 17.025-4.283 1 1 0 1 1 .95 1.76 38.018 38.018 0 0 1-17.976 4.523" fill="#FFB913"/></g></svg>