<svg width="45" height="58" viewBox="0 0 45 58" xmlns="http://www.w3.org/2000/svg"><title>7381286F-8DEB-435B-BC25-72E526EEE0A9</title><g fill="none" fill-rule="evenodd"><path d="M22.254 44.5c-12.131 0-22-9.87-22-22s9.869-22 22-22c12.13 0 22 9.87 22 22a21.941 21.941 0 0 1-8.016 16.985 1.006 1.006 0 0 1-1.28-1.552A19.938 19.938 0 0 0 42.243 22.5c0-11.022-8.967-19.989-19.99-19.989-11.021 0-19.988 8.967-19.988 19.989s8.967 19.989 19.989 19.989c2.71 0 5.337-.533 7.81-1.583a1.006 1.006 0 0 1 .786 1.851 21.855 21.855 0 0 1-8.596 1.743" fill="#FFF"/><path d="M22.244 57.943A38.018 38.018 0 0 1 4.192 53.38a1 1 0 0 1 .952-1.758 36.028 36.028 0 0 0 17.1 4.322 36.006 36.006 0 0 0 17.027-4.284 1 1 0 0 1 .948 1.762 38.028 38.028 0 0 1-17.975 4.522" fill="#FFB913"/><text font-family="Montserrat, Sans-serif" font-size="26" fill="#FFF"><tspan x="15" y="31">?</tspan></text></g></svg>