<svg width="44" height="58" viewBox="0 0 44 58" xmlns="http://www.w3.org/2000/svg"><title>AF88E5DE-F7E5-41DD-9ACC-AD2AE7F227EA</title><g fill="none" fill-rule="evenodd"><path d="M21.928 57.444A38.018 38.018 0 0 1 3.876 52.88a1 1 0 0 1 .953-1.758 36.019 36.019 0 0 0 17.099 4.322 36.01 36.01 0 0 0 17.026-4.283 1 1 0 1 1 .95 1.76 38.018 38.018 0 0 1-17.976 4.523" fill="#FFB913"/><path d="M13.11 41.97c-.272 0-.496-.062-.659-.129-.463-.19-1.24-.759-1.24-2.418v-6.079c0-1.103-.898-2-2-2H4.12c-2.206 0-4-1.794-4-4V4.042c0-2.206 1.794-4 4-4h35.181c2.206 0 4 1.794 4 4v10.09a1 1 0 1 1-2 0V4.042c0-1.102-.897-2-2-2H4.12c-1.103 0-2 .898-2 2v23.302c0 1.103.897 2 2 2h5.091c2.206 0 4 1.794 4 4v6.08c0 .21.02.362.044.467.09-.058.212-.152.361-.3l7.771-7.824c1.351-1.359 3.909-2.423 5.824-2.423h12.09c1.103 0 2-.897 2-2v-8.043a1 1 0 1 1 2 0v8.043c0 2.206-1.794 4-4 4h-12.09c-1.376 0-3.435.856-4.406 1.833L15.034 41c-.757.762-1.423.97-1.924.97" fill="#005BC6"/><path d="M15.63 13.348l-.84 1.742c-.927-.539-2.092-.915-2.807-.915-.576 0-.964.213-.964.64 0 1.516 4.637.652 4.637 3.823 0 1.754-1.554 2.681-3.51 2.681-1.466 0-2.97-.55-4.011-1.403L9 18.2c.903.79 2.257 1.316 3.172 1.316.7 0 1.14-.263 1.14-.765 0-1.554-4.637-.626-4.637-3.735 0-1.617 1.39-2.645 3.497-2.645 1.265 0 2.556.39 3.459.978M24.543 21.245l-.012-5.703-2.107 4.826h-1.453l-2.106-4.826v5.703h-1.993v-8.787h2.444l2.382 5.227 2.381-5.227h2.432v8.787zM35.11 13.348l-.84 1.742c-.928-.539-2.093-.915-2.808-.915-.576 0-.964.213-.964.64 0 1.516 4.637.652 4.637 3.823 0 1.754-1.554 2.681-3.51 2.681-1.466 0-2.97-.55-4.011-1.403l.865-1.717c.903.79 2.257 1.316 3.172 1.316.7 0 1.14-.263 1.14-.765 0-1.554-4.637-.626-4.637-3.735 0-1.617 1.39-2.645 3.497-2.645 1.265 0 2.556.39 3.459.978" fill="#005BC6"/></g></svg>