<svg width="45" height="58" viewBox="0 0 45 58" xmlns="http://www.w3.org/2000/svg"><title>47C2C6FD-54A9-41A7-BF3F-79E71649A786</title><g fill="none" fill-rule="evenodd"><path d="M22.114 44.5c-12.131 0-22-9.87-22-22s9.869-22 22-22c12.13 0 22 9.87 22 22a21.94 21.94 0 0 1-8.017 16.985 1.006 1.006 0 1 1-1.28-1.552A19.938 19.938 0 0 0 42.104 22.5c0-11.022-8.967-19.989-19.99-19.989-11.021 0-19.988 8.967-19.988 19.989s8.967 19.989 19.989 19.989c2.71 0 5.337-.533 7.81-1.583a1.006 1.006 0 0 1 .786 1.851 21.855 21.855 0 0 1-8.596 1.743" fill="#FFF"/><path d="M20.476 30.5c-.293 0-.572-.233-.763-.456l-4.785-5.622a1.039 1.039 0 0 1 .108-1.445 1.006 1.006 0 0 1 1.419.095l3.973 4.618 10.678-14.069a1.004 1.004 0 1 1 1.602 1.213L21.277 29.997c-.184.243-.467.503-.771.503h-.03z" fill="#FFF"/><path d="M22.026 57.943A38.014 38.014 0 0 1 3.975 53.38a1 1 0 1 1 .952-1.758 36.025 36.025 0 0 0 17.099 4.322 36.006 36.006 0 0 0 17.027-4.284 1.001 1.001 0 0 1 .949 1.762 38.032 38.032 0 0 1-17.976 4.522" fill="#FFB913"/></g></svg>