<?xml version="1.0" encoding="UTF-8" standalone="no"?>
<svg width="1440px" height="1346px" viewBox="0 0 1440 1346" version="1.1" xmlns="http://www.w3.org/2000/svg" xmlns:xlink="http://www.w3.org/1999/xlink">
    <!-- Generator: Sketch 41 (35326) - http://www.bohemiancoding.com/sketch -->
    <title>Bg@2x</title>
    <desc>Created with Sketch.</desc>
    <defs></defs>
    <g id="Page-1" stroke="none" stroke-width="1" fill="none" fill-rule="evenodd">
        <g id="Personal-details---Default-view---Desktop" transform="translate(0.000000, -37.000000)">
            <g id="Bg" transform="translate(-880.000000, -226.000000)">
                <path d="M1084.15656,445.40528 C1076.41519,447.574128 1072.25343,456.088402 1075.49861,463.450089 C1096.15879,510.247615 1148.29228,534.166901 1199.34817,519.877296 C1250.42884,505.600085 1282.59579,458.108528 1276.00633,407.369897 C1274.96589,399.400933 1266.98918,394.27006 1259.24781,396.438907 L1084.15656,445.40528 Z" id="Fill-1" fill-opacity="0.05" fill="#005AC8" transform="translate(1175.623684, 459.965808) rotate(47.000000) translate(-1175.623684, -459.965808) "></path>
                <path d="M80.5859717,1173.07267 C16.7222906,1190.96492 -17.6108243,1261.20478 9.16083076,1321.9362 C179.600223,1707.99986 609.683797,1905.32583 1030.87755,1787.44146 C1452.27566,1669.65932 1717.64203,1277.87014 1663.28126,859.293698 C1654.69798,793.552454 1588.89285,751.2245 1525.02916,769.116751 L80.5859717,1173.07267 Z" id="Fill-1-Copy-2" fill-opacity="0.05" fill="#005AC8"></path>
                <path d="M1619.07508,697.780983 C1566.70382,712.45348 1538.54903,770.053512 1560.50306,819.856161 C1700.27147,1136.44673 2052.96047,1298.26342 2398.35938,1201.59262 C2743.92588,1105.00567 2961.53893,783.719896 2916.96051,440.4673 C2909.92182,386.556353 2855.95847,351.845416 2803.58722,366.517914 L1619.07508,697.780983 Z" id="Fill-1-Copy" fill-opacity="0.1" fill="#FFB836" transform="translate(2237.860522, 796.284601) rotate(47.000000) translate(-2237.860522, -796.284601) "></path>
                <path d="M1469.60768,1695.49789 C1439.74384,1703.86464 1423.68904,1736.7101 1436.20796,1765.10923 C1515.90857,1945.63973 1717.02359,2037.913 1913.98157,1982.78809 C2111.03511,1927.71098 2235.12533,1744.50312 2209.70523,1548.76905 C2205.69153,1518.02723 2174.91983,1498.2339 2145.05599,1506.60064 L1469.60768,1695.49789 Z" id="Fill-1-Copy-3" fill-opacity="0.1" fill="#FFB836" transform="translate(1822.459769, 1751.667938) rotate(-20.000000) translate(-1822.459769, -1751.667938) "></path>
            </g>
        </g>
    </g>
</svg>