<?xml version="1.0" encoding="UTF-8" standalone="no"?>
<svg width="38px" height="59px" viewBox="0 0 38 59" version="1.1" xmlns="http://www.w3.org/2000/svg" xmlns:xlink="http://www.w3.org/1999/xlink">
    <!-- Generator: sketchtool 40 (33762) - http://www.bohemiancoding.com/sketch -->
    <title>FA9F61EE-3523-4682-8D1C-BA4FD73389F8</title>
    <desc>Created with sketchtool.</desc>
    <defs></defs>
    <g id="Style-guide" stroke="none" stroke-width="1" fill="none" fill-rule="evenodd">
        <g id="Icons" transform="translate(-302.000000, -367.000000)">
            <g id="Large" transform="translate(302.000000, 137.000000)">
                <g id="Calculator-LRG" transform="translate(0.000000, 230.000000)">
                    <path d="M31.9788,45.5 L5.9788,45.5 C3.7728,45.5 1.9788,43.684 1.9788,41.451 L1.9788,4.549 C1.9788,2.316 3.7728,0.5 5.9788,0.5 L31.9788,0.5 C34.1848,0.5 35.9788,2.316 35.9788,4.549 L35.9788,31.071 C35.9788,31.63 35.5308,32.083 34.9788,32.083 C34.4268,32.083 33.9788,31.63 33.9788,31.071 L33.9788,4.549 C33.9788,3.433 33.0818,2.524 31.9788,2.524 L5.9788,2.524 C4.8758,2.524 3.9788,3.433 3.9788,4.549 L3.9788,41.451 C3.9788,42.567 4.8758,43.476 5.9788,43.476 L31.9788,43.476 C33.0818,43.476 33.9788,42.567 33.9788,41.451 L33.9788,36.244 C33.9788,35.685 34.4268,35.232 34.9788,35.232 C35.5308,35.232 35.9788,35.685 35.9788,36.244 L35.9788,41.451 C35.9788,43.684 34.1848,45.5 31.9788,45.5" id="Fill-46" fill="#005BC6"></path>
                    <path d="M10.4788,10.8399 C9.9278,10.8399 9.4788,11.2939 9.4788,11.8519 L9.4788,19.9489 C9.4788,20.5079 9.9278,20.9609 10.4788,20.9609 L27.4788,20.9609 C28.0298,20.9609 28.4788,20.5079 28.4788,19.9489 L28.4788,11.8519 C28.4788,11.2939 28.0298,10.8399 27.4788,10.8399 L10.4788,10.8399 Z M27.4788,22.9859 L10.4788,22.9859 C8.8248,22.9859 7.4788,21.6239 7.4788,19.9489 L7.4788,11.8519 C7.4788,10.1779 8.8248,8.8159 10.4788,8.8159 L27.4788,8.8159 C29.1328,8.8159 30.4788,10.1779 30.4788,11.8519 L30.4788,19.9489 C30.4788,21.6239 29.1328,22.9859 27.4788,22.9859 L27.4788,22.9859 Z" id="Fill-47" fill="#005BC6"></path>
                    <path d="M21.4244,7.5 L16.4244,7.5 C15.8724,7.5 15.4244,7.059 15.4244,6.5 C15.4244,5.941 15.8724,5.5 16.4244,5.5 L21.4244,5.5 C21.9764,5.5 22.4244,5.941 22.4244,6.5 C22.4244,7.059 21.9764,7.5 21.4244,7.5" id="Fill-48" fill="#005BC6"></path>
                    <path d="M10.171,29.8584 L12.171,29.8584 L12.171,27.8344 L10.171,27.8344 L10.171,29.8584 Z M12.171,31.8824 L10.171,31.8824 C9.068,31.8824 8.171,30.9744 8.171,29.8584 L8.171,27.8344 C8.171,26.7184 9.068,25.8094 10.171,25.8094 L12.171,25.8094 C13.274,25.8094 14.171,26.7184 14.171,27.8344 L14.171,29.8584 C14.171,30.9744 13.274,31.8824 12.171,31.8824 L12.171,31.8824 Z" id="Fill-49" fill="#005BC6"></path>
                    <path d="M17.979,29.8584 L19.979,29.8584 L19.979,27.8344 L17.979,27.8344 L17.979,29.8584 Z M19.979,31.8824 L17.979,31.8824 C16.876,31.8824 15.979,30.9744 15.979,29.8584 L15.979,27.8344 C15.979,26.7184 16.876,25.8094 17.979,25.8094 L19.979,25.8094 C21.082,25.8094 21.979,26.7184 21.979,27.8344 L21.979,29.8584 C21.979,30.9744 21.082,31.8824 19.979,31.8824 L19.979,31.8824 Z" id="Fill-50" fill="#005BC6"></path>
                    <path d="M25.508,29.8584 L27.508,29.8584 L27.508,27.8344 L25.508,27.8344 L25.508,29.8584 Z M27.508,31.8824 L25.508,31.8824 C24.405,31.8824 23.508,30.9744 23.508,29.8584 L23.508,27.8344 C23.508,26.7184 24.405,25.8094 25.508,25.8094 L27.508,25.8094 C28.611,25.8094 29.508,26.7184 29.508,27.8344 L29.508,29.8584 C29.508,30.9744 28.611,31.8824 27.508,31.8824 L27.508,31.8824 Z" id="Fill-51" fill="#005BC6"></path>
                    <path d="M10.171,37.9564 L12.171,37.9564 L12.171,35.9324 L10.171,35.9324 L10.171,37.9564 Z M12.171,39.9804 L10.171,39.9804 C9.068,39.9804 8.171,39.0724 8.171,37.9564 L8.171,35.9324 C8.171,34.8164 9.068,33.9074 10.171,33.9074 L12.171,33.9074 C13.274,33.9074 14.171,34.8164 14.171,35.9324 L14.171,37.9564 C14.171,39.0724 13.274,39.9804 12.171,39.9804 L12.171,39.9804 Z" id="Fill-52" fill="#005BC6"></path>
                    <path d="M17.979,37.9564 L19.979,37.9564 L19.979,35.9324 L17.979,35.9324 L17.979,37.9564 Z M19.979,39.9804 L17.979,39.9804 C16.876,39.9804 15.979,39.0724 15.979,37.9564 L15.979,35.9324 C15.979,34.8164 16.876,33.9074 17.979,33.9074 L19.979,33.9074 C21.082,33.9074 21.979,34.8164 21.979,35.9324 L21.979,37.9564 C21.979,39.0724 21.082,39.9804 19.979,39.9804 L19.979,39.9804 Z" id="Fill-53" fill="#005BC6"></path>
                    <path d="M25.508,37.9564 L27.508,37.9564 L27.508,35.9324 L25.508,35.9324 L25.508,37.9564 Z M27.508,39.9804 L25.508,39.9804 C24.405,39.9804 23.508,39.0724 23.508,37.9564 L23.508,35.9324 C23.508,34.8164 24.405,33.9074 25.508,33.9074 L27.508,33.9074 C28.611,33.9074 29.508,34.8164 29.508,35.9324 L29.508,37.9564 C29.508,39.0724 28.611,39.9804 27.508,39.9804 L27.508,39.9804 Z" id="Fill-54" fill="#005BC6"></path>
                    <path d="M19.0163,58.9434 C12.7203,58.9434 6.4783,57.3654 0.9633,54.3794 C0.4783,54.1164 0.2973,53.5094 0.5613,53.0234 C0.8243,52.5384 1.4313,52.3584 1.9163,52.6214 C7.1383,55.4484 13.0513,56.9434 19.0163,56.9434 C24.9533,56.9434 30.8403,55.4624 36.0423,52.6594 C36.5313,52.3974 37.1363,52.5804 37.3983,53.0654 C37.6603,53.5514 37.4783,54.1584 36.9923,54.4214 C31.4983,57.3794 25.2833,58.9434 19.0163,58.9434" id="Fill-55" fill="#FFB913"></path>
                </g>
            </g>
        </g>
    </g>
</svg>