<?xml version="1.0" encoding="UTF-8" standalone="no"?>
<svg width="41px" height="59px" viewBox="0 0 41 59" version="1.1" xmlns="http://www.w3.org/2000/svg" xmlns:xlink="http://www.w3.org/1999/xlink">
    <!-- Generator: sketchtool 40 (33762) - http://www.bohemiancoding.com/sketch -->
    <title>31BFAF7A-421F-4435-BA03-E14F7644E7BC</title>
    <desc>Created with sketchtool.</desc>
    <defs></defs>
    <g id="Style-guide" stroke="none" stroke-width="1" fill="none" fill-rule="evenodd">
        <g id="Icons" transform="translate(-302.000000, -1953.000000)">
            <g id="Large" transform="translate(302.000000, 137.000000)">
                <g id="Calendar-LRG" transform="translate(0.000000, 1816.000000)">
                    <path d="M21.0114,58.9434 C14.7144,58.9434 8.4734,57.3654 2.9594,54.3794 C2.4744,54.1164 2.2934,53.5094 2.5574,53.0234 C2.8204,52.5384 3.4274,52.3584 3.9124,52.6214 C9.1334,55.4484 15.0464,56.9434 21.0114,56.9434 C26.9484,56.9434 32.8364,55.4624 38.0374,52.6604 C38.5274,52.3954 39.1304,52.5804 39.3924,53.0654 C39.6554,53.5514 39.4734,54.1584 38.9874,54.4204 C33.4944,57.3794 27.2794,58.9434 21.0114,58.9434" id="Fill-83" fill="#FFB913"></path>
                    <path d="M36.9744,42.5 L4.9744,42.5 C2.7684,42.5 0.9744,40.706 0.9744,38.5 L0.9744,6.5 C0.9744,4.294 2.7684,2.5 4.9744,2.5 L36.9744,2.5 C39.1804,2.5 40.9744,4.294 40.9744,6.5 L40.9744,27.962 C40.9744,28.515 40.5274,28.962 39.9744,28.962 C39.4214,28.962 38.9744,28.515 38.9744,27.962 L38.9744,6.5 C38.9744,5.397 38.0774,4.5 36.9744,4.5 L4.9744,4.5 C3.8714,4.5 2.9744,5.397 2.9744,6.5 L2.9744,38.5 C2.9744,39.603 3.8714,40.5 4.9744,40.5 L36.9744,40.5 C38.0774,40.5 38.9744,39.603 38.9744,38.5 L38.9744,34.393 C38.9744,33.84 39.4214,33.393 39.9744,33.393 C40.5274,33.393 40.9744,33.84 40.9744,34.393 L40.9744,38.5 C40.9744,40.706 39.1804,42.5 36.9744,42.5" id="Fill-84" fill="#005BC6"></path>
                    <polygon id="Fill-85" fill="#005BC6" points="2.474 11.0004 39.474 11.0004 39.474 9.0004 2.474 9.0004"></polygon>
                    <path d="M12.2614,8 C11.4334,8 10.7614,7.329 10.7614,6.5 L10.7614,1.5 C10.7614,0.671 11.4334,0 12.2614,0 C13.0894,0 13.7614,0.671 13.7614,1.5 L13.7614,6.5 C13.7614,7.329 13.0894,8 12.2614,8" id="Fill-86" fill="#005BC6"></path>
                    <path d="M30.2614,8 C29.4334,8 28.7614,7.329 28.7614,6.5 L28.7614,1.5 C28.7614,0.671 29.4334,0 30.2614,0 C31.0894,0 31.7614,0.671 31.7614,1.5 L31.7614,6.5 C31.7614,7.329 31.0894,8 30.2614,8" id="Fill-87" fill="#005BC6"></path>
                </g>
            </g>
        </g>
    </g>
</svg>