<?xml version="1.0" encoding="UTF-8" standalone="no"?>
<svg width="44px" height="56px" viewBox="0 0 44 56" version="1.1" xmlns="http://www.w3.org/2000/svg" xmlns:xlink="http://www.w3.org/1999/xlink">
    <!-- Generator: Sketch 39.1 (31720) - http://www.bohemiancoding.com/sketch -->
    <title>Chat-LRG</title>
    <desc>Created with Sketch.</desc>
    <defs></defs>
    <g id="Style-guide" stroke="none" stroke-width="1" fill="none" fill-rule="evenodd">
        <g id="Icons" transform="translate(-302.000000, -1516.000000)">
            <g id="Large" transform="translate(302.000000, 137.000000)">
                <g id="Chat-LRG" transform="translate(0.000000, 1379.000000)">
                    <path d="M13.7666,42.4639 C13.4946,42.4639 13.2706,42.4029 13.1076,42.3359 C12.6446,42.1449 11.8676,41.5759 11.8676,39.9169 L11.8676,33.8379 C11.8676,32.7349 10.9696,31.8379 9.8676,31.8379 L4.7766,31.8379 C2.5706,31.8379 0.7766,30.0439 0.7766,27.8379 L0.7766,4.5359 C0.7766,2.3299 2.5706,0.5359 4.7766,0.5359 L39.9576,0.5359 C42.1636,0.5359 43.9576,2.3299 43.9576,4.5359 L43.9576,14.6259 C43.9576,15.1789 43.5106,15.6259 42.9576,15.6259 C42.4056,15.6259 41.9576,15.1789 41.9576,14.6259 L41.9576,4.5359 C41.9576,3.4339 41.0606,2.5359 39.9576,2.5359 L4.7766,2.5359 C3.6736,2.5359 2.7766,3.4339 2.7766,4.5359 L2.7766,27.8379 C2.7766,28.9409 3.6736,29.8379 4.7766,29.8379 L9.8676,29.8379 C12.0736,29.8379 13.8676,31.6319 13.8676,33.8379 L13.8676,39.9169 C13.8676,40.1269 13.8876,40.2799 13.9116,40.3849 C14.0016,40.3269 14.1236,40.2329 14.2726,40.0839 L22.0436,32.2619 C23.3936,30.9019 25.9526,29.8379 27.8676,29.8379 L39.9576,29.8379 C41.0606,29.8379 41.9576,28.9409 41.9576,27.8379 L41.9576,19.7949 C41.9576,19.2419 42.4056,18.7949 42.9576,18.7949 C43.5106,18.7949 43.9576,19.2419 43.9576,19.7949 L43.9576,27.8379 C43.9576,30.0439 42.1636,31.8379 39.9576,31.8379 L27.8676,31.8379 C26.4916,31.8379 24.4326,32.6939 23.4616,33.6719 L15.6906,41.4939 C14.9336,42.2559 14.2676,42.4639 13.7666,42.4639" id="Fill-73" fill="#005BC6"></path>
                    <path d="M17.3669,16.8353 C17.3669,15.7303 16.4719,14.8353 15.3669,14.8353 C14.2629,14.8353 13.3669,15.7303 13.3669,16.8353 C13.3669,17.9403 14.2629,18.8353 15.3669,18.8353 C16.4719,18.8353 17.3669,17.9403 17.3669,16.8353" id="Fill-74" fill="#005BC6"></path>
                    <path d="M24.3669,16.8353 C24.3669,15.7303 23.4719,14.8353 22.3669,14.8353 C21.2629,14.8353 20.3669,15.7303 20.3669,16.8353 C20.3669,17.9403 21.2629,18.8353 22.3669,18.8353 C23.4719,18.8353 24.3669,17.9403 24.3669,16.8353" id="Fill-75" fill="#005BC6"></path>
                    <path d="M31.3669,16.8353 C31.3669,15.7303 30.4719,14.8353 29.3669,14.8353 C28.2629,14.8353 27.3669,15.7303 27.3669,16.8353 C27.3669,17.9403 28.2629,18.8353 29.3669,18.8353 C30.4719,18.8353 31.3669,17.9403 31.3669,16.8353" id="Fill-76" fill="#005BC6"></path>
                    <path d="M22.3492,55.9434 C16.0522,55.9434 9.8112,54.3654 4.2972,51.3794 C3.8122,51.1164 3.6312,50.5094 3.8952,50.0234 C4.1572,49.5384 4.7652,49.3584 5.2502,49.6214 C10.4712,52.4484 16.3842,53.9434 22.3492,53.9434 C28.2862,53.9434 34.1742,52.4624 39.3752,49.6604 C39.8642,49.3954 40.4682,49.5804 40.7302,50.0654 C40.9932,50.5514 40.8112,51.1584 40.3252,51.4204 C34.8322,54.3794 28.6172,55.9434 22.3492,55.9434" id="Fill-77" fill="#FFB913"></path>
                </g>
            </g>
        </g>
    </g>
</svg>