<?xml version="1.0" encoding="UTF-8" standalone="no"?>
<svg width="44px" height="58px" viewBox="0 0 44 58" version="1.1" xmlns="http://www.w3.org/2000/svg" xmlns:xlink="http://www.w3.org/1999/xlink">
    <!-- Generator: sketchtool 40 (33762) - http://www.bohemiancoding.com/sketch -->
    <title>0F849C31-EA6C-4952-AEA9-B43E6AFC0D61</title>
    <desc>Created with sketchtool.</desc>
    <defs></defs>
    <g id="Style-guide" stroke="none" stroke-width="1" fill="none" fill-rule="evenodd">
        <g id="Icons" transform="translate(-302.000000, -714.000000)">
            <g id="Large" transform="translate(302.000000, 137.000000)">
                <g id="Cross-LRG" transform="translate(0.000000, 577.000000)">
                    <path d="M22,44.5 C9.869,44.5 0,34.63 0,22.5 C0,10.37 9.869,0.5 22,0.5 C34.131,0.5 44,10.37 44,22.5 C44,29.095 41.078,35.287 35.983,39.485 C35.554,39.838 34.922,39.778 34.568,39.349 C34.214,38.92 34.275,38.286 34.704,37.933 C39.333,34.118 41.989,28.492 41.989,22.5 C41.989,11.478 33.022,2.511 22,2.511 C10.978,2.511 2.011,11.478 2.011,22.5 C2.011,33.522 10.978,42.489 22,42.489 C24.71,42.489 27.337,41.956 29.81,40.906 C30.323,40.686 30.911,40.927 31.129,41.439 C31.346,41.949 31.107,42.54 30.596,42.757 C27.874,43.914 24.981,44.5 22,44.5 L22,44.5 Z" id="Fill-1" fill="#005BC6"></path>
                    <path d="M29.0306,30.2167 C28.7736,30.2167 28.5156,30.1187 28.3196,29.9217 L14.2396,15.8417 C13.8466,15.4487 13.8466,14.8127 14.2396,14.4197 C14.6326,14.0267 15.2686,14.0267 15.6616,14.4197 L29.7416,28.4997 C30.1346,28.8927 30.1346,29.5297 29.7416,29.9217 C29.5456,30.1187 29.2876,30.2167 29.0306,30.2167" id="Fill-3" fill="#005BC6"></path>
                    <path d="M14.9506,30.2167 C14.6936,30.2167 14.4356,30.1187 14.2396,29.9217 C13.8466,29.5297 13.8466,28.8927 14.2396,28.4997 L28.3196,14.4197 C28.7126,14.0267 29.3486,14.0267 29.7416,14.4197 C30.1346,14.8127 30.1346,15.4487 29.7416,15.8417 L15.6616,29.9217 C15.4656,30.1187 15.2076,30.2167 14.9506,30.2167" id="Fill-5" fill="#005BC6"></path>
                    <path d="M22.0373,57.9434 C15.7413,57.9434 9.4983,56.3654 3.9853,53.3794 C3.4993,53.1164 3.3193,52.5094 3.5823,52.0234 C3.8453,51.5394 4.4523,51.3584 4.9373,51.6214 C10.1603,54.4484 16.0723,55.9434 22.0373,55.9434 C27.9743,55.9434 33.8623,54.4624 39.0643,51.6594 C39.5503,51.3974 40.1563,51.5804 40.4183,52.0654 C40.6803,52.5514 40.4983,53.1584 40.0123,53.4214 C34.5193,56.3794 28.3043,57.9434 22.0373,57.9434" id="Fill-7" fill="#FFB913"></path>
                </g>
            </g>
        </g>
    </g>
</svg>