<?xml version="1.0" encoding="UTF-8" standalone="no"?>
<svg width="38px" height="59px" viewBox="0 0 38 59" version="1.1" xmlns="http://www.w3.org/2000/svg" xmlns:xlink="http://www.w3.org/1999/xlink">
    <!-- Generator: sketchtool 40 (33762) - http://www.bohemiancoding.com/sketch -->
    <title>3BB30716-EEF9-4057-821A-ED5C811042CF</title>
    <desc>Created with sketchtool.</desc>
    <defs></defs>
    <g id="Style-guide" stroke="none" stroke-width="1" fill="none" fill-rule="evenodd">
        <g id="Icons" transform="translate(-302.000000, -252.000000)">
            <g id="Large" transform="translate(302.000000, 137.000000)">
                <g id="Documents-LRG" transform="translate(0.000000, 115.000000)">
                    <path d="M32.3208,45.5 L5.8398,45.5 C3.6068,45.5 1.7908,43.684 1.7908,41.451 L1.7908,4.549 C1.7908,2.316 3.6068,0.5 5.8398,0.5 L32.3208,0.5 C34.5528,0.5 36.3698,2.316 36.3698,4.549 L36.3698,31.071 C36.3698,31.63 35.9158,32.083 35.3568,32.083 C34.7978,32.083 34.3448,31.63 34.3448,31.071 L34.3448,4.549 C34.3448,3.433 33.4368,2.524 32.3208,2.524 L5.8398,2.524 C4.7228,2.524 3.8148,3.433 3.8148,4.549 L3.8148,41.451 C3.8148,42.567 4.7228,43.476 5.8398,43.476 L32.3208,43.476 C33.4368,43.476 34.3448,42.567 34.3448,41.451 L34.3448,36.244 C34.3448,35.685 34.7978,35.232 35.3568,35.232 C35.9158,35.232 36.3698,35.685 36.3698,36.244 L36.3698,41.451 C36.3698,43.684 34.5528,45.5 32.3208,45.5" id="Fill-21" fill="#FFFFFF"></path>
                    <path d="M22.6268,9.6015 C22.0688,9.6015 21.6148,10.0555 21.6148,10.6135 L21.6148,14.6625 C21.6148,15.2205 22.0688,15.6745 22.6268,15.6745 L26.6758,15.6745 C27.2338,15.6745 27.6878,15.2205 27.6878,14.6625 L27.6878,10.6135 C27.6878,10.0555 27.2338,9.6015 26.6758,9.6015 L22.6268,9.6015 Z M26.6758,17.6985 L22.6268,17.6985 C20.9528,17.6985 19.5908,16.3365 19.5908,14.6625 L19.5908,10.6135 C19.5908,8.9395 20.9528,7.5775 22.6268,7.5775 L26.6758,7.5775 C28.3498,7.5775 29.7118,8.9395 29.7118,10.6135 L29.7118,14.6625 C29.7118,16.3365 28.3498,17.6985 26.6758,17.6985 L26.6758,17.6985 Z" id="Fill-23" fill="#FFFFFF"></path>
                    <path d="M15.5456,11.5 L9.4726,11.5 C8.9136,11.5 8.4606,11.059 8.4606,10.5 C8.4606,9.941 8.9136,9.5 9.4726,9.5 L15.5456,9.5 C16.1046,9.5 16.5576,9.941 16.5576,10.5 C16.5576,11.059 16.1046,11.5 15.5456,11.5" id="Fill-25" fill="#FFFFFF"></path>
                    <path d="M15.5456,17.5 L9.4726,17.5 C8.9136,17.5 8.4606,17.059 8.4606,16.5 C8.4606,15.941 8.9136,15.5 9.4726,15.5 L15.5456,15.5 C16.1046,15.5 16.5576,15.941 16.5576,16.5 C16.5576,17.059 16.1046,17.5 15.5456,17.5" id="Fill-27" fill="#FFFFFF"></path>
                    <path d="M28.7035,23.5 L9.4725,23.5 C8.9135,23.5 8.4605,23.059 8.4605,22.5 C8.4605,21.941 8.9135,21.5 9.4725,21.5 L28.7035,21.5 C29.2625,21.5 29.7155,21.941 29.7155,22.5 C29.7155,23.059 29.2625,23.5 28.7035,23.5" id="Fill-29" fill="#FFFFFF"></path>
                    <path d="M28.7035,29.5 L9.4725,29.5 C8.9135,29.5 8.4605,29.059 8.4605,28.5 C8.4605,27.941 8.9135,27.5 9.4725,27.5 L28.7035,27.5 C29.2625,27.5 29.7155,27.941 29.7155,28.5 C29.7155,29.059 29.2625,29.5 28.7035,29.5" id="Fill-31" fill="#FFFFFF"></path>
                    <path d="M21.6185,35.5 L9.4725,35.5 C8.9135,35.5 8.4605,35.059 8.4605,34.5 C8.4605,33.941 8.9135,33.5 9.4725,33.5 L21.6185,33.5 C22.1775,33.5 22.6305,33.941 22.6305,34.5 C22.6305,35.059 22.1775,35.5 21.6185,35.5" id="Fill-33" fill="#FFFFFF"></path>
                    <path d="M18.9098,58.9434 C12.6128,58.9434 6.3718,57.3654 0.8578,54.3794 C0.3728,54.1164 0.1918,53.5094 0.4558,53.0234 C0.7188,52.5384 1.3258,52.3584 1.8108,52.6214 C7.0318,55.4484 12.9448,56.9434 18.9098,56.9434 C24.8468,56.9434 30.7348,55.4624 35.9358,52.6604 C36.4248,52.3954 37.0288,52.5804 37.2908,53.0654 C37.5538,53.5514 37.3718,54.1584 36.8858,54.4204 C31.3928,57.3794 25.1778,58.9434 18.9098,58.9434" id="Fill-35" fill="#FFB913"></path>
                </g>
            </g>
        </g>
    </g>
</svg>