<?xml version="1.0" encoding="UTF-8" standalone="no"?>
<svg width="47px" height="51px" viewBox="0 0 47 51" version="1.1" xmlns="http://www.w3.org/2000/svg" xmlns:xlink="http://www.w3.org/1999/xlink">
    <!-- Generator: sketchtool 40 (33762) - http://www.bohemiancoding.com/sketch -->
    <title>E5F02669-D2AC-4701-A875-544E6D55A05E</title>
    <desc>Created with sketchtool.</desc>
    <defs></defs>
    <g id="Style-guide" stroke="none" stroke-width="1" fill="none" fill-rule="evenodd">
        <g id="Icons" transform="translate(-302.000000, -1740.000000)">
            <g id="Large" transform="translate(302.000000, 137.000000)">
                <g id="Email-LRG" transform="translate(0.000000, 1603.000000)">
                    <path d="M42.9044,34.5 L4.9044,34.5 C2.6984,34.5 0.9044,32.706 0.9044,30.5 L0.9044,4.5 C0.9044,2.294 2.6984,0.5 4.9044,0.5 L42.9044,0.5 C45.1104,0.5 46.9044,2.294 46.9044,4.5 L46.9044,22.51 C46.9044,23.062 46.4574,23.51 45.9044,23.51 C45.3514,23.51 44.9044,23.062 44.9044,22.51 L44.9044,4.5 C44.9044,3.397 44.0074,2.5 42.9044,2.5 L4.9044,2.5 C3.8014,2.5 2.9044,3.397 2.9044,4.5 L2.9044,30.5 C2.9044,31.603 3.8014,32.5 4.9044,32.5 L42.9044,32.5 C44.0074,32.5 44.9044,31.603 44.9044,30.5 L44.9044,27.362 C44.9044,26.81 45.3514,26.362 45.9044,26.362 C46.4574,26.362 46.9044,26.81 46.9044,27.362 L46.9044,30.5 C46.9044,32.706 45.1104,34.5 42.9044,34.5" id="Fill-59" fill="#005BC6"></path>
                    <path d="M23.9044,22.1465 C23.6594,22.1465 23.4144,22.0565 23.2224,21.8775 L3.2224,3.2165 C2.8184,2.8395 2.7964,2.2075 3.1734,1.8025 C3.5504,1.3995 4.1824,1.3775 4.5864,1.7535 L23.9044,19.7785 L43.2214,1.7535 C43.6274,1.3765 44.2584,1.3995 44.6354,1.8025 C45.0124,2.2075 44.9904,2.8395 44.5874,3.2165 L24.5864,21.8775 C24.3944,22.0565 24.1494,22.1465 23.9044,22.1465" id="Fill-60" fill="#005BC6"></path>
                    <polygon id="Fill-61" fill="#005BC6" points="4.5865 33.878 3.2225 32.415 20.0615 16.702 21.4255 18.165"></polygon>
                    <polygon id="Fill-62" fill="#005BC6" points="43.2217 33.878 26.2927 18.081 27.6567 16.618 44.5867 32.415"></polygon>
                    <path d="M23.0163,50.9434 C16.7203,50.9434 10.4783,49.3654 4.9633,46.3794 C4.4783,46.1164 4.2973,45.5094 4.5613,45.0234 C4.8243,44.5384 5.4323,44.3584 5.9163,44.6214 C11.1383,47.4484 17.0513,48.9434 23.0163,48.9434 C28.9533,48.9434 34.8403,47.4624 40.0423,44.6594 C40.5313,44.3974 41.1353,44.5804 41.3983,45.0654 C41.6603,45.5514 41.4783,46.1584 40.9923,46.4214 C35.4983,49.3794 29.2833,50.9434 23.0163,50.9434" id="Fill-63" fill="#FFB913"></path>
                </g>
            </g>
        </g>
    </g>
</svg>