<?xml version="1.0" encoding="UTF-8" standalone="no"?>
<svg width="45px" height="58px" viewBox="0 0 45 58" version="1.1" xmlns="http://www.w3.org/2000/svg" xmlns:xlink="http://www.w3.org/1999/xlink">
    <!-- Generator: Sketch 39.1 (31720) - http://www.bohemiancoding.com/sketch -->
    <title>Exclaimation circle-LRG</title>
    <desc>Created with Sketch.</desc>
    <defs></defs>
    <g id="Style-guide" stroke="none" stroke-width="1" fill="none" fill-rule="evenodd">
        <g id="Icons" transform="translate(-302.000000, -137.000000)">
            <g id="Large" transform="translate(302.000000, 137.000000)">
                <g id="Exclaimation-circle-LRG">
                    <path d="M22.8175,57.9434 C16.5215,57.9434 10.2785,56.3654 4.7655,53.3794 C4.2795,53.1164 4.0995,52.5094 4.3625,52.0234 C4.6255,51.5394 5.2315,51.3584 5.7175,51.6214 C10.9405,54.4484 16.8525,55.9434 22.8175,55.9434 C28.7545,55.9434 34.6425,54.4624 39.8445,51.6594 C40.3305,51.3974 40.9375,51.5804 41.1985,52.0654 C41.4605,52.5514 41.2785,53.1584 40.7925,53.4214 C35.2995,56.3794 29.0845,57.9434 22.8175,57.9434" id="Fill-88" fill="#FFB913"></path>
                    <path d="M22.9054,44.5 C10.7744,44.5 0.9054,34.63 0.9054,22.5 C0.9054,10.37 10.7744,0.5 22.9054,0.5 C35.0364,0.5 44.9054,10.37 44.9054,22.5 C44.9054,29.095 41.9834,35.286 36.8884,39.485 C36.4614,39.838 35.8274,39.779 35.4734,39.349 C35.1194,38.92 35.1804,38.287 35.6094,37.933 C40.2384,34.117 42.8944,28.492 42.8944,22.5 C42.8944,11.478 33.9274,2.511 22.9054,2.511 C11.8834,2.511 2.9164,11.478 2.9164,22.5 C2.9164,33.522 11.8834,42.489 22.9054,42.489 C25.6154,42.489 28.2424,41.956 30.7144,40.906 C31.2244,40.687 31.8164,40.927 32.0334,41.439 C32.2504,41.949 32.0124,42.54 31.5014,42.757 C28.7794,43.914 25.8874,44.5 22.9054,44.5" id="Fill-89" fill="#005BC6"></path>
                    <path d="M22.7614,24.4707 C22.2094,24.4707 21.7614,24.0237 21.7614,23.4707 L21.7614,13.4707 C21.7614,12.9177 22.2094,12.4707 22.7614,12.4707 C23.3134,12.4707 23.7614,12.9177 23.7614,13.4707 L23.7614,23.4707 C23.7614,24.0237 23.3134,24.4707 22.7614,24.4707" id="Fill-90" fill="#005BC6"></path>
                    <path d="M24.4787,27.9707 C24.4787,27.1427 23.8067,26.4707 22.9787,26.4707 C22.1507,26.4707 21.4787,27.1427 21.4787,27.9707 C21.4787,28.7987 22.1507,29.4707 22.9787,29.4707 C23.8067,29.4707 24.4787,28.7987 24.4787,27.9707" id="Fill-91" fill="#005BC6"></path>
                </g>
            </g>
        </g>
    </g>
</svg>