<?xml version="1.0" encoding="UTF-8" standalone="no"?>
<svg width="38px" height="58px" viewBox="0 0 38 58" version="1.1" xmlns="http://www.w3.org/2000/svg" xmlns:xlink="http://www.w3.org/1999/xlink">
    <!-- Generator: sketchtool 40 (33762) - http://www.bohemiancoding.com/sketch -->
    <title>98329144-7EAA-4CB2-876A-C3B0292B44F9</title>
    <desc>Created with sketchtool.</desc>
    <defs></defs>
    <g id="Style-guide" stroke="none" stroke-width="1" fill="none" fill-rule="evenodd">
        <g id="Icons" transform="translate(-302.000000, -1058.000000)">
            <g id="Large" transform="translate(302.000000, 137.000000)">
                <g id="Exclamation-LRG" transform="translate(0.000000, 921.000000)">
                    <path d="M19.711,31.3223 C16.847,31.3223 14.517,29.1533 14.517,26.4883 L14.517,5.4013 C14.517,2.7353 16.847,0.5663 19.711,0.5663 C22.575,0.5663 24.904,2.7353 24.904,5.4013 L24.904,21.3653 C24.904,21.9183 24.457,22.3653 23.904,22.3653 C23.352,22.3653 22.904,21.9183 22.904,21.3653 L22.904,5.4013 C22.904,3.8383 21.472,2.5663 19.711,2.5663 C17.95,2.5663 16.517,3.8383 16.517,5.4013 L16.517,26.4883 C16.517,28.0513 17.95,29.3223 19.711,29.3223 C21.472,29.3223 22.904,28.0513 22.904,26.4883 C22.904,25.9353 23.352,25.4883 23.904,25.4883 C24.457,25.4883 24.904,25.9353 24.904,26.4883 C24.904,29.1533 22.575,31.3223 19.711,31.3223" id="Fill-56" fill="#005BC6"></path>
                    <path d="M19.711,36.1153 C18.858,36.1153 18.056,36.4473 17.453,37.0513 C16.208,38.2963 16.208,40.3223 17.453,41.5673 C18.698,42.8113 20.724,42.8113 21.969,41.5673 C23.214,40.3223 23.214,38.2963 21.969,37.0513 C21.366,36.4473 20.564,36.1153 19.711,36.1153 M19.711,44.5003 C18.381,44.5003 17.051,43.9943 16.039,42.9813 C14.014,40.9563 14.014,37.6623 16.039,35.6363 C18.063,33.6113 21.359,33.6113 23.383,35.6363 C25.408,37.6623 25.408,40.9563 23.383,42.9813 C22.371,43.9943 21.041,44.5003 19.711,44.5003" id="Fill-57" fill="#005BC6"></path>
                    <path d="M19.0163,57.9434 C12.7203,57.9434 6.4783,56.3654 0.9633,53.3794 C0.4783,53.1164 0.2973,52.5094 0.5613,52.0234 C0.8243,51.5384 1.4313,51.3584 1.9163,51.6214 C7.1383,54.4484 13.0513,55.9434 19.0163,55.9434 C24.9533,55.9434 30.8403,54.4624 36.0423,51.6594 C36.5313,51.3974 37.1363,51.5804 37.3983,52.0654 C37.6603,52.5514 37.4783,53.1584 36.9923,53.4214 C31.4983,56.3794 25.2833,57.9434 19.0163,57.9434" id="Fill-58" fill="#FFB913"></path>
                </g>
            </g>
        </g>
    </g>
</svg>