<?xml version="1.0" encoding="UTF-8" standalone="no"?>
<svg width="47px" height="58px" viewBox="0 0 47 58" version="1.1" xmlns="http://www.w3.org/2000/svg" xmlns:xlink="http://www.w3.org/1999/xlink">
    <!-- Generator: Sketch 39.1 (31720) - http://www.bohemiancoding.com/sketch -->
    <title>Exit-LRG</title>
    <desc>Created with Sketch.</desc>
    <defs></defs>
    <g id="Style-guide" stroke="none" stroke-width="1" fill="none" fill-rule="evenodd">
        <g id="Icons" transform="translate(-302.000000, -1287.000000)">
            <g id="Large" transform="translate(302.000000, 137.000000)">
                <g id="Exit-LRG" transform="translate(0.000000, 1150.000000)">
                    <path d="M29.9021,44.73 L8.7391,44.73 C6.5331,44.73 4.7391,42.936 4.7391,40.73 L4.7391,4.27 C4.7391,2.064 6.5331,0.27 8.7391,0.27 L29.9021,0.27 C32.1081,0.27 33.9021,2.064 33.9021,4.27 L33.9021,17.473 C33.9021,18.026 33.4551,18.473 32.9021,18.473 C32.3491,18.473 31.9021,18.026 31.9021,17.473 L31.9021,4.27 C31.9021,3.167 31.0051,2.27 29.9021,2.27 L8.7391,2.27 C7.6361,2.27 6.7391,3.167 6.7391,4.27 L6.7391,40.73 C6.7391,41.833 7.6361,42.73 8.7391,42.73 L29.9021,42.73 C31.0051,42.73 31.9021,41.833 31.9021,40.73 L31.9021,27.585 C31.9021,27.033 32.3491,26.585 32.9021,26.585 C33.4551,26.585 33.9021,27.033 33.9021,27.585 L33.9021,40.73 C33.9021,42.936 32.1081,44.73 29.9021,44.73" id="Fill-67" fill="#005BC6"></path>
                    <path d="M43.7614,23.5 L21.7614,23.5 C21.2084,23.5 20.7614,23.053 20.7614,22.5 C20.7614,21.947 21.2084,21.5 21.7614,21.5 L43.7614,21.5 C44.3144,21.5 44.7614,21.947 44.7614,22.5 C44.7614,23.053 44.3144,23.5 43.7614,23.5" id="Fill-68" fill="#005BC6"></path>
                    <path d="M37.7382,30.5 C37.4742,30.5 37.2092,30.402 37.0072,30.207 C36.6042,29.816 36.6042,29.182 37.0072,28.791 L43.7302,22.278 L37.0342,16.233 C36.6162,15.857 36.5932,15.223 36.9822,14.818 C37.3702,14.415 38.0272,14.391 38.4422,14.768 L46.7052,22.227 L38.4682,30.207 C38.2672,30.402 38.0022,30.5 37.7382,30.5" id="Fill-69" fill="#005BC6"></path>
                    <path d="M18.5983,57.9434 C12.3023,57.9434 6.0603,56.3654 0.5453,53.3794 C0.0603,53.1164 -0.1207,52.5094 0.1433,52.0234 C0.4063,51.5384 1.0143,51.3584 1.4983,51.6214 C6.7203,54.4484 12.6333,55.9434 18.5983,55.9434 C24.5353,55.9434 30.4223,54.4624 35.6243,51.6594 C36.1133,51.3974 36.7183,51.5804 36.9803,52.0654 C37.2413,52.5514 37.0603,53.1584 36.5743,53.4214 C31.0803,56.3794 24.8653,57.9434 18.5983,57.9434" id="Fill-70" fill="#FFB913"></path>
                </g>
            </g>
        </g>
    </g>
</svg>