<?xml version="1.0" encoding="UTF-8" standalone="no"?>
<svg width="47px" height="55px" viewBox="0 0 47 55" version="1.1" xmlns="http://www.w3.org/2000/svg" xmlns:xlink="http://www.w3.org/1999/xlink">
    <!-- Generator: sketchtool 40 (33762) - http://www.bohemiancoding.com/sketch -->
    <title>A8D094D2-B39A-4671-8127-03998A466F4D</title>
    <desc>Created with sketchtool.</desc>
    <defs></defs>
    <g id="Style-guide" stroke="none" stroke-width="1" fill="none" fill-rule="evenodd">
        <g id="Icons" transform="translate(-302.000000, -1628.000000)">
            <g id="Large" transform="translate(302.000000, 137.000000)">
                <g id="Folder-LRG" transform="translate(0.000000, 1491.000000)">
                    <path d="M41.4404,38.5 L5.4404,38.5 C2.6834,38.5 0.4404,36.257 0.4404,33.5 L0.4404,5.5 C0.4404,2.743 2.6834,0.5 5.4404,0.5 L16.4404,0.5 C19.4064,0.5 21.1214,1.754 22.6344,2.859 C23.8884,3.776 24.8784,4.5 26.4404,4.5 L41.4404,4.5 C44.1974,4.5 46.4404,6.743 46.4404,9.5 L46.4404,18.516 L6.4384,18.516 C5.8854,18.516 5.4384,18.068 5.4384,17.516 C5.4384,16.963 5.8854,16.516 6.4384,16.516 L44.4404,16.516 L44.4404,9.5 C44.4404,7.846 43.0944,6.5 41.4404,6.5 L26.4404,6.5 C24.2254,6.5 22.8164,5.47 21.4544,4.475 C20.0654,3.459 18.7534,2.5 16.4404,2.5 L5.4404,2.5 C3.7864,2.5 2.4404,3.846 2.4404,5.5 L2.4404,33.5 C2.4404,35.154 3.7864,36.5 5.4404,36.5 L41.4404,36.5 C43.0944,36.5 44.4404,35.154 44.4404,33.5 L44.4404,22.266 C44.4404,21.713 44.8884,21.266 45.4404,21.266 C45.9924,21.266 46.4404,21.713 46.4404,22.266 L46.4404,33.5 C46.4404,36.257 44.1974,38.5 41.4404,38.5" id="Fill-37" fill="#005BC6"></path>
                    <path d="M23.4772,54.9434 C17.1822,54.9434 10.9402,53.3654 5.4252,50.3794 C4.9402,50.1164 4.7592,49.5094 5.0232,49.0234 C5.2862,48.5384 5.8932,48.3584 6.3782,48.6214 C11.6002,51.4484 17.5132,52.9434 23.4772,52.9434 C29.4142,52.9434 35.3022,51.4624 40.5042,48.6594 C40.9922,48.3974 41.5982,48.5804 41.8602,49.0654 C42.1222,49.5514 41.9402,50.1584 41.4542,50.4214 C35.9602,53.3794 29.7442,54.9434 23.4772,54.9434" id="Fill-39" fill="#FFB913"></path>
                </g>
            </g>
        </g>
    </g>
</svg>