<?xml version="1.0" encoding="UTF-8" standalone="no"?>
<svg width="55px" height="58px" viewBox="0 0 55 58" version="1.1" xmlns="http://www.w3.org/2000/svg" xmlns:xlink="http://www.w3.org/1999/xlink">
    <!-- Generator: sketchtool 40 (33762) - http://www.bohemiancoding.com/sketch -->
    <title>ACD8FD58-02D7-4A67-A40F-F55B345BF248</title>
    <desc>Created with sketchtool.</desc>
    <defs></defs>
    <g id="Style-guide" stroke="none" stroke-width="1" fill="none" fill-rule="evenodd">
        <g id="Icons" transform="translate(-302.000000, -1401.000000)">
            <g id="Large" transform="translate(302.000000, 137.000000)">
                <g id="Laptop-LRG" transform="translate(0.000000, 1264.000000)">
                    <path d="M52.1205,41.2793 L2.7675,41.2793 C1.5995,41.2793 0.6855,40.8203 0.2595,40.0183 C-0.1675,39.2173 -0.0375,38.2023 0.6155,37.2323 L4.8695,30.9233 C5.1795,30.4643 5.8015,30.3443 6.2575,30.6523 C6.7155,30.9613 6.8365,31.5833 6.5275,32.0403 L2.2735,38.3493 C1.9835,38.7813 1.9975,39.0273 2.0245,39.0793 C2.0525,39.1313 2.2485,39.2793 2.7675,39.2793 L52.1205,39.2793 C52.5995,39.2793 52.8205,39.1513 52.8525,39.0893 C52.8865,39.0263 52.8655,38.7703 52.5945,38.3773 L48.0925,31.8503 C47.3445,30.7653 45.5305,29.8133 44.2125,29.8133 L9.6895,29.8133 C7.4835,29.8133 5.6895,28.0193 5.6895,25.8133 L5.6895,4.2783 C5.6895,2.0723 7.4835,0.2783 9.6895,0.2783 L44.2125,0.2783 C46.4185,0.2783 48.2125,2.0723 48.2125,4.2783 L48.2125,23.7813 C48.2125,24.3343 47.7655,24.7813 47.2125,24.7813 C46.6595,24.7813 46.2125,24.3343 46.2125,23.7813 L46.2125,4.2783 C46.2125,3.1753 45.3145,2.2783 44.2125,2.2783 L9.6895,2.2783 C8.5875,2.2783 7.6895,3.1753 7.6895,4.2783 L7.6895,25.8133 C7.6895,26.9163 8.5875,27.8133 9.6895,27.8133 L44.2125,27.8133 C46.1885,27.8133 48.6165,29.0883 49.7385,30.7163 L54.2405,37.2423 C54.9045,38.2063 55.0445,39.2173 54.6245,40.0183 C54.2035,40.8203 53.2905,41.2793 52.1205,41.2793" id="Fill-81" fill="#005BC6"></path>
                    <path d="M27.4742,57.9434 C21.1772,57.9434 14.9362,56.3654 9.4222,53.3794 C8.9372,53.1164 8.7562,52.5094 9.0202,52.0234 C9.2832,51.5384 9.8912,51.3584 10.3752,51.6214 C15.5962,54.4484 21.5092,55.9434 27.4742,55.9434 C33.4112,55.9434 39.2992,54.4624 44.5002,51.6604 C44.9892,51.3954 45.5932,51.5804 45.8552,52.0654 C46.1182,52.5514 45.9362,53.1584 45.4502,53.4204 C39.9572,56.3794 33.7422,57.9434 27.4742,57.9434" id="Fill-82" fill="#FFB913"></path>
                </g>
            </g>
        </g>
    </g>
</svg>