<?xml version="1.0" encoding="UTF-8" standalone="no"?>
<svg width="129px" height="17px" viewBox="0 0 129 17" version="1.1" xmlns="http://www.w3.org/2000/svg" xmlns:xlink="http://www.w3.org/1999/xlink">
    <!-- Generator: sketchtool 3.8.3 (29802) - http://www.bohemiancoding.com/sketch -->
    <title>91C26114-F05B-4411-965A-3EAD3A5AB821</title>
    <desc>Created with sketchtool.</desc>
    <defs></defs>
    <g id="Page-1" stroke="none" stroke-width="1" fill="none" fill-rule="evenodd">
        <g id="Logos" transform="translate(-37.000000, -59.000000)">
            <g id="Logo--blu---Sml" transform="translate(37.000000, 59.000000)">
                <path d="M44.8875,0.8699 C44.7885,0.8699 44.7085,0.9539 44.7165,1.0529 C44.8005,2.0009 45.5315,2.7049 46.4235,2.7049 C47.3145,2.7049 48.0455,2.0009 48.1295,1.0529 C48.1385,0.9539 48.0575,0.8699 47.9585,0.8699 L44.8875,0.8699 Z" id="Fill-3" fill="#FFB913"></path>
                <polygon id="Fill-6" fill="#005BC6" points="38.8544 0.8699 36.2994 0.8699 36.2994 12.8699 43.7064 12.8699 43.7064 10.6379 38.8544 10.6379"></polygon>
                <polygon id="Fill-9" fill="#005BC6" points="45.178 12.869 47.668 12.869 47.668 4.168 45.178 4.168"></polygon>
                <polygon id="Fill-11" fill="#005BC6" points="58.0482 4.1851 55.2182 4.1851 52.0322 7.4681 52.0322 0.8701 49.5412 0.8701 49.5412 12.8691 52.0322 12.8691 52.0322 10.5081 53.1482 9.3281 55.2502 12.8691 58.1942 12.8691 54.8622 7.5331"></polygon>
                <path d="M62.7708,4.0881 C60.1188,4.0881 58.2908,5.8671 58.2908,8.5511 C58.2908,11.1871 60.0538,12.9661 62.8358,12.9661 C64.4038,12.9661 65.6818,12.4001 66.5548,11.4301 L65.2448,10.1041 C64.6468,10.7021 63.8708,11.0261 63.0458,11.0261 C61.9298,11.0261 61.0888,10.3791 60.7978,9.2791 L67.0398,9.2791 C67.2508,6.1091 65.8278,4.0881 62.7708,4.0881 L62.7708,4.0881 Z M60.7488,7.8081 C60.9438,6.6591 61.6868,5.9151 62.7868,5.9151 C63.9348,5.9151 64.6788,6.6591 64.7118,7.8081 L60.7488,7.8081 Z" id="Fill-12" fill="#005BC6"></path>
                <path d="M72.1475,10.7645 C71.7315,10.8645 71.1815,10.8965 70.9765,10.4525 C70.9735,10.4445 70.9695,10.4375 70.9665,10.4295 C70.9645,10.4255 70.9635,10.4215 70.9625,10.4175 C70.9295,10.3305 70.9085,10.2345 70.8995,10.1305 C70.8965,10.0955 70.8945,10.0595 70.8945,10.0205 L70.8945,0.8695 L68.4135,0.8695 L68.4135,10.2725 C68.4135,11.9085 69.5035,12.9515 71.2275,12.9655 C72.2385,12.9585 72.9585,12.6815 72.9585,12.6815 L72.1475,10.7645 Z" id="Fill-13" fill="#005BC6"></path>
                <path d="M79.0731,4.1689 L77.0191,10.1529 L74.7391,4.1689 L72.1681,4.1689 L75.7741,12.6919 L75.5311,13.1769 C75.2891,13.6939 74.9011,13.9529 74.3831,13.9529 C74.1371,13.9529 73.9151,13.8979 73.6911,13.7829 L72.7371,15.6539 C73.2851,15.9739 73.8681,16.1199 74.5611,16.1199 C76.0651,16.1199 77.1321,15.3759 77.7471,13.8399 L81.5641,4.1689 L79.0731,4.1689 Z" id="Fill-14" fill="#005BC6"></path>
                <path d="M1.4235,0.87 C0.5995,0.87 -0.0675,1.57 0.0055,2.389 C0.7025,10.268 6.7785,16.12 14.1855,16.12 C21.5965,16.12 27.6705,10.268 28.3675,2.389 C28.4395,1.57 27.7715,0.87 26.9485,0.87 L1.4235,0.87 Z" id="Fill-15" fill="#FFB913"></path>
                <path d="M94.1112,11.1253 C92.9012,11.1253 92.0912,10.1953 92.0912,8.8153 C92.0912,7.4553 92.9212,6.5053 94.1112,6.5053 C95.2812,6.5053 96.1012,7.4553 96.1012,8.8153 C96.1012,10.1953 95.3012,11.1253 94.1112,11.1253 M94.1112,4.6053 C91.3812,4.6053 89.6212,6.2453 89.6212,8.7853 C89.6212,11.2953 91.4212,12.9753 94.1112,12.9753 C96.7812,12.9753 98.5812,11.2953 98.5812,8.7853 C98.5812,6.2853 96.7812,4.6053 94.1112,4.6053" id="Fill-16" fill="#005BC6"></path>
                <path d="M105.0712,10.1753 C104.8912,10.9153 104.1312,11.4253 103.2212,11.4253 C102.4112,11.4253 101.9112,10.9953 101.9112,10.3053 C101.9112,9.6253 102.3612,9.2753 103.2512,9.2753 L105.0812,9.2753 L105.0712,10.1753 Z M103.9412,4.5753 C102.6912,4.5753 101.5612,4.8453 100.1912,5.4753 L100.8612,7.0253 C101.7212,6.6053 102.6112,6.3653 103.3112,6.3653 C104.4312,6.3653 105.0812,6.8953 105.0812,7.8153 L105.0812,8.0653 L102.7412,8.0653 C100.7312,8.0753 99.6212,8.9453 99.6212,10.4953 C99.6212,12.0253 100.7112,13.0153 102.3912,13.0153 C103.5012,13.0153 104.3512,12.6453 104.8712,11.9653 L105.0912,11.6753 L105.0912,12.8853 L107.4912,12.8853 L107.4912,7.5053 C107.4812,5.6453 106.1812,4.5753 103.9412,4.5753 L103.9412,4.5753 Z" id="Fill-17" fill="#005BC6"></path>
                <path d="M117.3912,7.6953 L117.3912,12.8853 L114.9412,12.8853 L114.9412,8.4453 C114.9412,7.4053 114.3112,6.7253 113.3312,6.7253 C112.3212,6.7253 111.6212,7.4253 111.4912,8.5553 L111.4912,12.8853 L109.0312,12.8853 L109.0312,4.7053 L111.4912,4.7053 L111.4912,6.3953 L111.7212,6.0253 C112.2912,5.0753 113.2012,4.5953 114.4312,4.5753 C116.2312,4.5753 117.3912,5.8053 117.3912,7.6953" id="Fill-18" fill="#005BC6"></path>
                <path d="M125.8112,10.4253 C125.8112,11.9853 124.4712,12.9953 122.3812,12.9953 C121.0112,12.9953 119.7212,12.6053 118.7612,11.8953 L119.5112,10.3853 C120.4512,11.0153 121.5112,11.3753 122.4512,11.3753 C123.1012,11.3753 123.4912,11.1153 123.4912,10.6753 C123.4912,10.1053 122.7612,9.8853 121.9212,9.6453 C120.6812,9.2853 119.1412,8.8353 119.1512,7.1353 C119.1512,5.5553 120.4112,4.5753 122.4512,4.5753 C123.5912,4.5753 124.7612,4.8953 125.7612,5.4553 L124.9512,6.9953 C123.9612,6.4853 123.0412,6.1953 122.3412,6.1953 C121.7412,6.1953 121.3912,6.4553 121.3912,6.8953 C121.3912,7.4353 122.0812,7.6353 122.9412,7.8853 C124.2312,8.2553 125.8212,8.7153 125.8112,10.4253" id="Fill-19" fill="#005BC6"></path>
                <path d="M89.2312,12.5953 C88.9612,12.6853 88.2512,12.8753 87.3512,12.8853 C85.3712,12.8653 84.1512,11.6953 84.1512,9.8253 L84.1512,0.8753 L86.8312,0.8753 L86.8312,9.5353 C86.8312,9.5853 86.8412,9.6253 86.8412,9.6753 C86.8512,9.8053 86.8812,9.9253 86.9212,10.0553 L86.9412,10.0953 C87.1512,10.5453 87.6412,10.7053 88.3612,10.5553 L89.2312,12.5953 Z" id="Fill-20" fill="#005BC6"></path>
                <path d="M127.157725,3.4084681 L127.301902,3.4084681 C127.471903,3.4084681 127.607473,3.35251857 127.607473,3.21479667 C127.607473,3.09429 127.519245,3.01251762 127.327725,3.01251762 C127.248105,3.01251762 127.190003,3.02112524 127.157725,3.02973286 L127.157725,3.4084681 Z M127.151269,4.15733095 L126.843547,4.15733095 L126.843547,2.83606143 C126.966205,2.81239048 127.134054,2.79732714 127.351396,2.79732714 C127.601017,2.79732714 127.712916,2.83606143 127.809752,2.89416286 C127.880765,2.95011238 127.938866,3.05340381 127.938866,3.1825181 C127.938866,3.32669571 127.826967,3.44074667 127.665574,3.48808857 L127.665574,3.5031519 C127.792537,3.55264571 127.865701,3.64948143 127.906588,3.82593762 C127.947474,4.02821667 127.971145,4.10783714 128.003423,4.15733095 L127.67203,4.15733095 C127.633296,4.10783714 127.607473,3.98733048 127.568739,3.83454524 C127.545068,3.68821571 127.463295,3.62581048 127.295447,3.62581048 L127.151269,3.62581048 L127.151269,4.15733095 Z M126.337849,3.46441762 C126.337849,4.05188762 126.772534,4.51885095 127.36646,4.51885095 C127.947474,4.51885095 128.371399,4.05188762 128.371399,3.47302524 C128.371399,2.88555524 127.947474,2.40998429 127.360004,2.40998429 C126.772534,2.40998429 126.337849,2.88555524 126.337849,3.46441762 L126.337849,3.46441762 Z M128.7114,3.46441762 C128.7114,4.21328048 128.12393,4.79859857 127.360004,4.79859857 C126.602533,4.79859857 126,4.21328048 126,3.46441762 C126,2.73277 126.602533,2.1453 127.360004,2.1453 C128.12393,2.1453 128.7114,2.73277 128.7114,3.46441762 L128.7114,3.46441762 Z" id="Fill-21" fill="#005BC6"></path>
            </g>
        </g>
    </g>
</svg>