<?xml version="1.0" encoding="UTF-8" standalone="no"?>
<svg width="87px" height="34px" viewBox="0 0 87 34" version="1.1" xmlns="http://www.w3.org/2000/svg" xmlns:xlink="http://www.w3.org/1999/xlink">
    <!-- Generator: sketchtool 3.8.3 (29802) - http://www.bohemiancoding.com/sketch -->
    <title>BDD31A2E-6B5D-4B0F-B942-9B804F5F2424</title>
    <desc>Created with sketchtool.</desc>
    <defs></defs>
    <g id="Page-1" stroke="none" stroke-width="1" fill="none" fill-rule="evenodd">
        <g id="Logos" transform="translate(-37.000000, -156.000000)">
            <g id="Logo--Blu---Med" transform="translate(37.000000, 156.000000)">
                <path d="M16.6694,0.1259 C16.4904,0.1259 16.3454,0.2779 16.3604,0.4569 C16.5124,2.1709 17.8344,3.4439 19.4464,3.4439 C21.0584,3.4439 22.3804,2.1709 22.5314,0.4569 C22.5474,0.2779 22.4024,0.1259 22.2234,0.1259 L16.6694,0.1259 Z" id="Fill-26" fill="#FFB913"></path>
                <path d="M16.5408,0.0684 C16.3508,0.0684 16.1968,0.2294 16.2138,0.4184 C16.3748,2.2364 17.7758,3.5864 19.4848,3.5864 C21.1948,3.5864 22.5958,2.2364 22.7558,0.4184 C22.7728,0.2294 22.6188,0.0684 22.4288,0.0684 L16.5408,0.0684 Z" id="Fill-28" fill="#FFB913"></path>
                <path d="M42.8886,30.8988 C42.8886,32.6598 41.6366,33.8268 39.7696,33.8268 C37.8916,33.8268 36.6396,32.6598 36.6396,30.8988 C36.6396,29.1378 37.8916,27.9808 39.7696,27.9808 C41.6366,27.9808 42.8886,29.1378 42.8886,30.8988 M38.4856,30.9198 C38.4856,31.8118 39.0056,32.4058 39.7696,32.4058 C40.5226,32.4058 41.0426,31.8118 41.0426,30.9198 C41.0426,30.0398 40.5226,29.4348 39.7696,29.4348 C39.0056,29.4348 38.4856,30.0398 38.4856,30.9198" id="Fill-30" fill="#005BC6"></path>
                <path d="M48.9362,30.0287 L48.9362,33.7637 L47.1432,33.7637 L47.1432,33.1057 C46.7712,33.5937 46.1672,33.8487 45.3922,33.8487 C44.1722,33.8487 43.4292,33.1057 43.4292,32.0557 C43.4292,30.9727 44.2042,30.3367 45.6262,30.3257 L47.1322,30.3257 L47.1322,30.2407 C47.1322,29.6787 46.7612,29.3387 46.0182,29.3387 C45.5412,29.3387 44.9152,29.5087 44.3102,29.8167 L43.7902,28.6067 C44.6812,28.1927 45.4882,27.9597 46.4432,27.9597 C48.0132,27.9597 48.9252,28.7347 48.9362,30.0287 M47.1322,31.8217 L47.1322,31.3127 L45.9762,31.3127 C45.4242,31.3127 45.1482,31.5037 45.1482,31.9277 C45.1482,32.3417 45.4452,32.6067 45.9552,32.6067 C46.5282,32.6067 47.0162,32.2887 47.1322,31.8217" id="Fill-32" fill="#005BC6"></path>
                <path d="M55.6524,30.1561 L55.6524,33.7631 L53.8274,33.7631 L53.8274,30.6651 C53.8274,29.9971 53.4344,29.5831 52.8194,29.5831 C52.1514,29.5831 51.7264,30.0601 51.6524,30.7401 L51.6524,33.7631 L49.8164,33.7631 L49.8164,28.0451 L51.6524,28.0451 L51.6524,28.9781 C52.0554,28.3101 52.7134,27.9701 53.5624,27.9601 C54.8244,27.9601 55.6524,28.8191 55.6524,30.1561" id="Fill-34" fill="#005BC6"></path>
                <path d="M61.3604,28.607 L60.7344,29.795 C60.0444,29.424 59.4084,29.222 58.9304,29.222 C58.6024,29.222 58.3684,29.35 58.3684,29.615 C58.3684,30.4 61.3814,30.018 61.3714,32.013 C61.3714,33.191 60.3424,33.838 58.9624,33.838 C58.0074,33.838 57.0844,33.562 56.3944,33.031 L56.9784,31.864 C57.6254,32.321 58.3684,32.575 59.0054,32.575 C59.3654,32.575 59.6314,32.448 59.6314,32.183 C59.6314,31.345 56.6704,31.779 56.6814,29.774 C56.6814,28.596 57.6784,27.96 59.0054,27.96 C59.8324,27.96 60.6604,28.193 61.3604,28.607" id="Fill-36" fill="#005BC6"></path>
                <polygon id="Fill-39" fill="#005BC6" points="4.9743 0.0684 0.0753 0.0684 0.0753 23.0744 14.2753 23.0744 14.2753 18.7954 4.9743 18.7954"></polygon>
                <polygon id="Fill-40" fill="#005BC6" points="17.098 23.074 21.873 23.074 21.873 6.393 17.098 6.393"></polygon>
                <polygon id="Fill-41" fill="#005BC6" points="41.7727 6.4245 36.3467 6.4245 30.2387 12.7185 30.2387 0.0685 25.4637 0.0685 25.4637 23.0745 30.2387 23.0745 30.2387 18.5475 32.3777 16.2845 36.4087 23.0745 42.0517 23.0745 35.6647 12.8425"></polygon>
                <path d="M50.8267,6.2385 C45.7417,6.2385 42.2387,9.6485 42.2387,14.7955 C42.2387,19.8495 45.6177,23.2605 50.9507,23.2605 C53.9587,23.2605 56.4077,22.1755 58.0817,20.3145 L55.5707,17.7725 C54.4237,18.9195 52.9347,19.5395 51.3537,19.5395 C49.2147,19.5395 47.6027,18.2995 47.0437,16.1915 L59.0117,16.1915 C59.4147,10.1145 56.6867,6.2385 50.8267,6.2385 L50.8267,6.2385 Z M46.9507,13.3695 C47.3227,11.1685 48.7497,9.7425 50.8577,9.7425 C53.0587,9.7425 54.4857,11.1685 54.5477,13.3695 L46.9507,13.3695 Z" id="Fill-42" fill="#005BC6"></path>
                <path d="M68.8039,19.0383 C68.0069,19.2303 66.9519,19.2923 66.5589,18.4403 C66.5529,18.4253 66.5449,18.4113 66.5389,18.3953 C66.5359,18.3883 66.5339,18.3813 66.5309,18.3743 C66.4689,18.2063 66.4279,18.0223 66.4109,17.8233 C66.4059,17.7553 66.4029,17.6863 66.4029,17.6123 L66.4029,0.0683 L61.6449,0.0683 L61.6449,18.0943 C61.6449,21.2313 63.7349,23.2313 67.0399,23.2593 C68.9779,23.2453 70.3589,22.7133 70.3589,22.7133 L68.8039,19.0383 Z" id="Fill-44" fill="#005BC6"></path>
                <path d="M82.0816,6.3934 L78.1436,17.8654 L73.7726,6.3934 L68.8426,6.3934 L75.7566,22.7334 L75.2916,23.6634 C74.8266,24.6554 74.0826,25.1514 73.0906,25.1514 C72.6176,25.1514 72.1916,25.0464 71.7626,24.8254 L69.9336,28.4134 C70.9856,29.0264 72.1036,29.3064 73.4316,29.3064 C76.3146,29.3064 78.3606,27.8794 79.5396,24.9344 L86.8566,6.3934 L82.0816,6.3934 Z" id="Fill-46" fill="#005BC6"></path>
                <path d="M35.9179,32.0004 C35.5849,32.0804 35.1439,32.1064 34.9799,31.7504 C34.9779,31.7444 34.9739,31.7384 34.9719,31.7324 C34.9709,31.7294 34.9699,31.7254 34.9689,31.7234 C34.9429,31.6534 34.9249,31.5764 34.9179,31.4924 C34.9159,31.4644 34.9149,31.4354 34.9149,31.4044 L34.9149,25.4484 L32.9269,25.4484 L32.9269,31.6064 C32.9269,32.9164 33.8009,33.7524 35.1809,33.7634 C35.9909,33.7574 36.5679,33.5354 36.5679,33.5354 L35.9179,32.0004 Z" id="Fill-48" fill="#005BC6"></path>
                <path d="M64.296281,28.7518788 C63.9137058,28.7518788 63.5848783,28.6125142 63.3097885,28.3337809 C63.0346988,28.0550476 62.897156,27.7225765 62.897156,27.3363578 C62.897156,26.945281 63.0356097,26.6115954 63.3125212,26.3352912 C63.5894327,26.0589869 63.9228147,25.9208368 64.312677,25.9208368 C64.7025393,25.9208368 65.0359212,26.0589869 65.3128327,26.3352912 C65.5897443,26.6115954 65.7281979,26.9440665 65.7281979,27.3327143 C65.7281979,27.7286492 65.5894406,28.0641565 65.3119218,28.3392462 C65.034403,28.614336 64.6958595,28.7518788 64.296281,28.7518788 L64.296281,28.7518788 Z M64.296281,28.5496615 C64.6922159,28.5496615 65.006773,28.404528 65.2399616,28.1142567 C65.4306419,27.8774245 65.5259807,27.6175202 65.5259807,27.334536 C65.5259807,27.0539809 65.4306419,26.7952911 65.2399616,26.5584589 C65.006773,26.2681876 64.6976812,26.1230541 64.312677,26.1230541 C63.9276727,26.1230541 63.618581,26.2681876 63.3853923,26.5584589 C63.194712,26.7952911 63.0993732,27.0545882 63.0993732,27.3363578 C63.0993732,27.6667084 63.2171803,27.9515101 63.452798,28.1907714 C63.6896303,28.4300327 63.9707884,28.5496615 64.296281,28.5496615 L64.296281,28.5496615 Z M63.846302,28.1069696 L63.846302,26.5766767 L64.3290729,26.5766767 C64.4833175,26.5766767 64.5989992,26.6079502 64.6761215,26.6704982 C64.7532438,26.7330462 64.7918044,26.8268668 64.7918044,26.9519628 C64.7918044,27.0442666 64.769336,27.1274603 64.7243986,27.2015463 C64.6794612,27.2756323 64.6126634,27.3400011 64.5240031,27.3946547 L64.9849128,28.1069696 L64.6988938,28.1069696 L64.2853503,27.4693476 L64.0922419,27.4693476 L64.0922419,28.1069696 L63.846302,28.1069696 Z M64.0758459,27.2780609 L64.1468952,27.2780609 C64.2817074,27.2780609 64.382815,27.2528599 64.4502211,27.2024572 C64.5176272,27.1520544 64.5513298,27.0764514 64.5513298,26.9756459 C64.5513298,26.8954873 64.5230925,26.8353692 64.4666171,26.7952899 C64.4101418,26.7552106 64.32543,26.7351713 64.2124792,26.7351713 L64.0758459,26.7351713 L64.0758459,27.2780609 Z" id="®" fill="#005BC6"></path>
            </g>
        </g>
    </g>
</svg>