<?xml version="1.0" encoding="UTF-8" standalone="no"?>
<svg width="153px" height="60px" viewBox="0 0 153 60" version="1.1" xmlns="http://www.w3.org/2000/svg" xmlns:xlink="http://www.w3.org/1999/xlink">
    <!-- Generator: sketchtool 3.8.3 (29802) - http://www.bohemiancoding.com/sketch -->
    <title>4794A762-66A5-4A78-B77D-37999F9CEE95</title>
    <desc>Created with sketchtool.</desc>
    <defs></defs>
    <g id="Page-1" stroke="none" stroke-width="1" fill="none" fill-rule="evenodd">
        <g id="Logos" transform="translate(-341.000000, -270.000000)">
            <g id="Logo--Wht---Lrg" transform="translate(341.000000, 270.000000)">
                <path d="M109.637975,50.3679224 C109.253052,50.3679224 108.922206,50.2277025 108.645428,49.9472583 C108.36865,49.6668142 108.230263,49.3323025 108.230263,48.9437133 C108.230263,48.5502361 108.369566,48.2145025 108.648178,47.9365023 C108.926789,47.6585022 109.262217,47.5195042 109.654472,47.5195042 C110.046727,47.5195042 110.382155,47.6585022 110.660767,47.9365023 C110.939378,48.2145025 111.078681,48.5490142 111.078681,48.9400474 C111.078681,49.3384124 110.939072,49.675979 110.65985,49.9527572 C110.380628,50.2295354 110.040006,50.3679224 109.637975,50.3679224 L109.637975,50.3679224 Z M109.637975,50.164464 C110.036341,50.164464 110.352828,50.0184397 110.587448,49.7263868 C110.779299,49.4881009 110.875223,49.2266014 110.875223,48.9418803 C110.875223,48.6596032 110.779299,48.3993257 110.587448,48.1610398 C110.352828,47.8689869 110.041839,47.7229626 109.654472,47.7229626 C109.267105,47.7229626 108.956116,47.8689869 108.721496,48.1610398 C108.529645,48.3993257 108.433721,48.6602142 108.433721,48.9437133 C108.433721,49.2760915 108.552252,49.5626412 108.789315,49.803371 C109.027601,50.0441009 109.310485,50.164464 109.637975,50.164464 L109.637975,50.164464 Z M109.185235,49.7190549 L109.185235,48.1793694 L109.670969,48.1793694 C109.82616,48.1793694 109.942552,48.2108349 110.020147,48.2737668 C110.097743,48.3366987 110.13654,48.4310951 110.13654,48.5569589 C110.13654,48.6498293 110.113934,48.7335336 110.068721,48.8080743 C110.023508,48.882615 109.9563,48.9473789 109.867095,49.002368 L110.330834,49.7190549 L110.043059,49.7190549 L109.626978,49.0775193 L109.432684,49.0775193 L109.432684,49.7190549 L109.185235,49.7190549 Z M109.416187,48.8850586 L109.487673,48.8850586 C109.623312,48.8850586 109.725041,48.8597029 109.79286,48.8089908 C109.86068,48.7582787 109.89459,48.6822116 109.89459,48.5807874 C109.89459,48.5001368 109.866179,48.4396498 109.809357,48.3993245 C109.752535,48.3589992 109.667303,48.3388368 109.553659,48.3388368 L109.416187,48.3388368 L109.416187,48.8850586 Z" id="®" fill="#FFFFFF"></path>
                <path d="M28.8986,0.6499 C28.5656,0.6499 28.2946,0.9329 28.3246,1.2649 C28.6066,4.4549 31.0666,6.8239 34.0656,6.8239 C37.0666,6.8239 39.5256,4.4549 39.8076,1.2649 C39.8366,0.9329 39.5666,0.6499 39.2336,0.6499 L28.8986,0.6499 Z" id="Fill-3" fill="#FFB913"></path>
                <path d="M75.1425,54.7611 C75.1425,57.8521 72.9455,59.9011 69.6675,59.9011 C66.3715,59.9011 64.1735,57.8521 64.1735,54.7611 C64.1735,51.6701 66.3715,49.6401 69.6675,49.6401 C72.9455,49.6401 75.1425,51.6701 75.1425,54.7611 M67.4145,54.7981 C67.4145,56.3631 68.3265,57.4051 69.6675,57.4051 C70.9895,57.4051 71.9025,56.3631 71.9025,54.7981 C71.9025,53.2531 70.9895,52.1911 69.6675,52.1911 C68.3265,52.1911 67.4145,53.2531 67.4145,54.7981" id="Fill-5" fill="#FFFFFF"></path>
                <path d="M85.7569,53.234 L85.7569,59.789 L82.6099,59.789 L82.6099,58.634 C81.9579,59.491 80.8969,59.938 79.5369,59.938 C77.3959,59.938 76.0919,58.634 76.0919,56.791 C76.0919,54.892 77.4509,53.774 79.9469,53.756 L82.5909,53.756 L82.5909,53.607 C82.5909,52.62 81.9389,52.024 80.6359,52.024 C79.7979,52.024 78.6989,52.322 77.6379,52.862 L76.7249,50.739 C78.2889,50.012 79.7049,49.603 81.3809,49.603 C84.1369,49.603 85.7379,50.962 85.7569,53.234 M82.5909,56.381 L82.5909,55.487 L80.5609,55.487 C79.5929,55.487 79.1089,55.823 79.1089,56.568 C79.1089,57.294 79.6299,57.759 80.5239,57.759 C81.5299,57.759 82.3859,57.201 82.5909,56.381" id="Fill-7" fill="#FFFFFF"></path>
                <path d="M97.5445,53.4576 L97.5445,59.7886 L94.3415,59.7886 L94.3415,54.3516 C94.3415,53.1786 93.6525,52.4516 92.5725,52.4516 C91.3995,52.4516 90.6545,53.2896 90.5235,54.4816 L90.5235,59.7886 L87.3025,59.7886 L87.3025,49.7516 L90.5235,49.7516 L90.5235,51.3906 C91.2315,50.2176 92.3855,49.6216 93.8755,49.6026 C96.0915,49.6026 97.5445,51.1116 97.5445,53.4576" id="Fill-9" fill="#FFFFFF"></path>
                <path d="M107.5628,50.7387 L106.4638,52.8247 C105.2538,52.1727 104.1368,51.8187 103.2988,51.8187 C102.7218,51.8187 102.3118,52.0427 102.3118,52.5077 C102.3118,53.8857 107.5998,53.2157 107.5818,56.7167 C107.5818,58.7837 105.7748,59.9197 103.3538,59.9197 C101.6778,59.9197 100.0578,59.4357 98.8478,58.5047 L99.8718,56.4557 C101.0078,57.2567 102.3118,57.7037 103.4288,57.7037 C104.0618,57.7037 104.5278,57.4797 104.5278,57.0147 C104.5278,55.5437 99.3318,56.3067 99.3508,52.7877 C99.3508,50.7197 101.1008,49.6027 103.4288,49.6027 C104.8808,49.6027 106.3338,50.0127 107.5628,50.7387" id="Fill-11" fill="#FFFFFF"></path>
                <polygon id="Fill-14" fill="#FFFFFF" points="0 0.6496 0 41.0286 24.923 41.0286 24.923 33.5176 8.598 33.5176 8.598 0.6496"></polygon>
                <polygon id="Fill-15" fill="#FFFFFF" points="29.876 41.028 38.256 41.028 38.256 11.751 29.876 11.751"></polygon>
                <polygon id="Fill-16" fill="#FFFFFF" points="73.1839 11.8056 63.6609 11.8056 52.9409 22.8526 52.9409 0.6496 44.5599 0.6496 44.5599 41.0276 52.9409 41.0276 52.9409 33.0826 56.6949 29.1106 63.7699 41.0276 73.6739 41.0276 62.4639 23.0706"></polygon>
                <path d="M89.0748,11.4791 C80.1508,11.4791 74.0008,17.4651 74.0008,26.4981 C74.0008,35.3681 79.9328,41.3541 89.2928,41.3541 C94.5708,41.3541 98.8698,39.4501 101.8088,36.1851 L97.4008,31.7221 C95.3868,33.7361 92.7748,34.8241 89.9998,34.8241 C86.2448,34.8241 83.4158,32.6471 82.4358,28.9471 L103.4408,28.9471 C104.1488,18.2811 99.3598,11.4791 89.0748,11.4791 L89.0748,11.4791 Z M82.2728,23.9951 C82.9258,20.1311 85.4288,17.6281 89.1288,17.6281 C92.9928,17.6281 95.4958,20.1311 95.6048,23.9951 L82.2728,23.9951 Z" id="Fill-17" fill="#FFFFFF"></path>
                <path d="M120.6271,33.9445 C119.2291,34.2815 117.3761,34.3895 116.6871,32.8955 C116.6761,32.8685 116.6631,32.8435 116.6521,32.8165 C116.6471,32.8045 116.6431,32.7905 116.6381,32.7785 C116.5291,32.4845 116.4571,32.1625 116.4271,31.8115 C116.4181,31.6935 116.4121,31.5705 116.4121,31.4415 L116.4121,0.6495 L108.0631,0.6495 L108.0631,32.2885 C108.0631,37.7945 111.7311,41.3045 117.5311,41.3525 C120.9321,41.3275 123.3561,40.3935 123.3561,40.3935 L120.6271,33.9445 Z" id="Fill-19" fill="#FFFFFF"></path>
                <path d="M143.9312,11.751 L137.0202,31.886 L129.3472,11.751 L120.6942,11.751 L132.8302,40.429 L132.0132,42.062 C131.1972,43.803 129.8912,44.674 128.1502,44.674 C127.3212,44.674 126.5732,44.489 125.8202,44.101 L122.6092,50.399 C124.4562,51.474 126.4182,51.966 128.7482,51.966 C133.8092,51.966 137.4012,49.463 139.4692,44.293 L152.3112,11.751 L143.9312,11.751 Z" id="Fill-21" fill="#FFFFFF"></path>
                <path d="M62.908,56.6945 C62.324,56.8355 61.55,56.8805 61.262,56.2565 C61.258,56.2455 61.252,56.2345 61.248,56.2235 C61.245,56.2185 61.244,56.2125 61.242,56.2075 C61.196,56.0845 61.166,55.9495 61.154,55.8035 C61.15,55.7545 61.147,55.7025 61.147,55.6485 L61.147,45.1955 L57.659,45.1955 L57.659,56.0025 C57.659,58.3025 59.192,59.7695 61.615,59.7895 C63.035,59.7785 64.048,59.3885 64.048,59.3885 L62.908,56.6945 Z" id="Fill-24" fill="#FFFFFF"></path>
            </g>
        </g>
    </g>
</svg>