<?xml version="1.0" encoding="UTF-8" standalone="no"?>
<svg width="45px" height="58px" viewBox="0 0 45 58" version="1.1" xmlns="http://www.w3.org/2000/svg" xmlns:xlink="http://www.w3.org/1999/xlink">
    <!-- Generator: Sketch 39.1 (31720) - http://www.bohemiancoding.com/sketch -->
    <title>Lock-LRG</title>
    <desc>Created with Sketch.</desc>
    <defs></defs>
    <g id="Style-guide" stroke="none" stroke-width="1" fill="none" fill-rule="evenodd">
        <g id="Icons" transform="translate(-302.000000, -1172.000000)">
            <g id="Large" transform="translate(302.000000, 137.000000)">
                <g id="Lock-LRG" transform="translate(0.000000, 1035.000000)">
                    <path d="M22.7124,44.5 C10.6504,44.5 0.8374,34.63 0.8374,22.5 C0.8374,10.37 10.6504,0.5 22.7124,0.5 C34.7744,0.5 44.5874,10.37 44.5874,22.5 C44.5874,29.095 41.6824,35.286 36.6154,39.485 C36.1914,39.839 35.5584,39.777 35.2084,39.349 C34.8574,38.92 34.9174,38.287 35.3444,37.933 C39.9464,34.117 42.5874,28.492 42.5874,22.5 C42.5874,11.478 33.6714,2.511 22.7124,2.511 C11.7534,2.511 2.8374,11.478 2.8374,22.5 C2.8374,33.522 11.7534,42.489 22.7124,42.489 C25.4064,42.489 28.0194,41.956 30.4784,40.906 C30.9834,40.687 31.5734,40.927 31.7884,41.439 C32.0054,41.949 31.7684,42.54 31.2594,42.757 C28.5524,43.914 25.6774,44.5 22.7124,44.5" id="Fill-64" fill="#005BC6"></path>
                    <path d="M19.7251,29.9565 L25.7001,29.9565 L24.1091,21.9545 C24.0301,21.5595 24.1941,21.1555 24.5241,20.9275 C25.3981,20.3245 25.9191,19.3305 25.9191,18.2685 C25.9191,16.4905 24.4811,15.0435 22.7121,15.0435 C20.9441,15.0435 19.5051,16.4905 19.5051,18.2685 C19.5051,19.3305 20.0271,20.3245 20.9011,20.9275 C21.2311,21.1555 21.3951,21.5595 21.3161,21.9545 L19.7251,29.9565 Z M26.9191,31.9675 L18.5051,31.9675 C18.2051,31.9675 17.9221,31.8325 17.7321,31.5995 C17.5421,31.3665 17.4661,31.0605 17.5251,30.7645 L19.2351,22.1635 C18.1411,21.1765 17.5051,19.7645 17.5051,18.2685 C17.5051,15.3815 19.8411,13.0325 22.7121,13.0325 C25.5831,13.0325 27.9191,15.3815 27.9191,18.2685 C27.9191,19.7645 27.2841,21.1765 26.1901,22.1635 L27.9001,30.7645 C27.9581,31.0605 27.8821,31.3665 27.6931,31.5995 C27.5021,31.8325 27.2191,31.9675 26.9191,31.9675 L26.9191,31.9675 Z" id="Fill-65" fill="#005BC6"></path>
                    <path d="M22.7497,57.6934 C16.4527,57.6934 10.2117,56.1154 4.6977,53.1294 C4.2127,52.8664 4.0317,52.2594 4.2957,51.7734 C4.5587,51.2884 5.1657,51.1084 5.6507,51.3714 C10.8717,54.1984 16.7847,55.6934 22.7497,55.6934 C28.6867,55.6934 34.5747,54.2124 39.7757,51.4104 C40.2647,51.1454 40.8687,51.3304 41.1307,51.8154 C41.3937,52.3014 41.2117,52.9084 40.7257,53.1704 C35.2327,56.1294 29.0177,57.6934 22.7497,57.6934" id="Fill-66" fill="#FFB913"></path>
                </g>
            </g>
        </g>
    </g>
</svg>