<?xml version="1.0" encoding="UTF-8" standalone="no"?>
<svg width="47px" height="49px" viewBox="0 0 47 49" version="1.1" xmlns="http://www.w3.org/2000/svg" xmlns:xlink="http://www.w3.org/1999/xlink">
    <!-- Generator: sketchtool 40 (33762) - http://www.bohemiancoding.com/sketch -->
    <title>3074CD69-51FC-490E-BC59-6E5BEC95CF3D</title>
    <desc>Created with sketchtool.</desc>
    <defs></defs>
    <g id="Style-guide" stroke="none" stroke-width="1" fill="none" fill-rule="evenodd">
        <g id="Icons" transform="translate(-302.000000, -1847.000000)">
            <g id="Large" transform="translate(302.000000, 137.000000)">
                <g id="Payments-LRG" transform="translate(0.000000, 1710.000000)">
                    <path d="M2.761,14.5004 L44.761,14.5004 L44.761,11.5004 L2.761,11.5004 L2.761,14.5004 Z M2.761,3.9944 C2.761,2.8944 3.325,2.5004 4.425,2.5004 L42.425,2.5004 C43.535,2.5004 44.761,2.8944 44.761,3.9944 L44.761,9.5004 L2.761,9.5004 L2.761,3.9944 Z M42.425,0.5004 L4.425,0.5004 C2.225,0.5004 0.761,1.7944 0.761,3.9944 L0.761,28.5044 C0.761,30.7044 2.225,32.5004 4.425,32.5004 L42.425,32.5004 C44.635,32.5004 46.761,30.7244 46.761,28.5344 L46.761,25.5744 C46.761,25.0144 46.311,24.5744 45.761,24.5744 C45.211,24.5744 44.761,25.0144 44.761,25.5744 L44.761,28.5344 C44.761,29.6244 43.535,30.5004 42.425,30.5004 L4.425,30.5004 C3.325,30.5004 2.761,29.6044 2.761,28.5044 L2.761,16.5004 L44.761,16.5004 L44.761,19.6744 C44.761,20.2344 45.211,20.6744 45.761,20.6744 C46.311,20.6744 46.761,20.2344 46.761,19.6744 L46.761,3.9944 C46.761,1.7944 44.635,0.5004 42.425,0.5004 L42.425,0.5004 Z" id="Fill-41" fill="#FFFFFF"></path>
                    <path d="M13.9651,26.5 L6.9651,26.5 C6.4131,26.5 5.9651,26.053 5.9651,25.5 C5.9651,24.947 6.4131,24.5 6.9651,24.5 L13.9651,24.5 C14.5171,24.5 14.9651,24.947 14.9651,25.5 C14.9651,26.053 14.5171,26.5 13.9651,26.5" id="Fill-43" fill="#FFFFFF"></path>
                    <path d="M21.9651,26.5 L18.9651,26.5 C18.4131,26.5 17.9651,26.053 17.9651,25.5 C17.9651,24.947 18.4131,24.5 18.9651,24.5 L21.9651,24.5 C22.5171,24.5 22.9651,24.947 22.9651,25.5 C22.9651,26.053 22.5171,26.5 21.9651,26.5" id="Fill-44" fill="#005BC6"></path>
                    <path d="M23.7311,48.9434 C17.4361,48.9434 11.1941,47.3654 5.6791,44.3794 C5.1941,44.1164 5.0131,43.5094 5.2771,43.0234 C5.5401,42.5384 6.1461,42.3584 6.6321,42.6214 C11.8541,45.4484 17.7671,46.9434 23.7311,46.9434 C29.6681,46.9434 35.5561,45.4624 40.7581,42.6594 C41.2471,42.3974 41.8521,42.5804 42.1141,43.0654 C42.3761,43.5514 42.1941,44.1584 41.7081,44.4214 C36.2141,47.3794 29.9981,48.9434 23.7311,48.9434" id="Fill-45" fill="#FFB913"></path>
                </g>
            </g>
        </g>
    </g>
</svg>