<?xml version="1.0" encoding="UTF-8" standalone="no"?>
<svg width="40px" height="58px" viewBox="0 0 40 58" version="1.1" xmlns="http://www.w3.org/2000/svg" xmlns:xlink="http://www.w3.org/1999/xlink">
    <!-- Generator: sketchtool 40 (33762) - http://www.bohemiancoding.com/sketch -->
    <title>8D41E68E-E5AC-4C47-BE61-D61E133C383E</title>
    <desc>Created with sketchtool.</desc>
    <defs></defs>
    <g id="Style-guide" stroke="none" stroke-width="1" fill="none" fill-rule="evenodd">
        <g id="Icons" transform="translate(-302.000000, -484.000000)">
            <g id="Large" transform="translate(302.000000, 137.000000)">
                <g id="Phone-LRG" transform="translate(0.000000, 346.000000)">
                    <path d="M31.0172,45.2793 C30.6822,45.2793 30.3152,45.2703 29.9092,45.2523 C29.7322,45.2443 29.5512,45.2313 29.3702,45.2133 C24.2082,44.7023 18.2232,40.0963 10.5382,30.7163 L10.4712,30.6353 C2.4142,19.7133 -0.5688,13.0843 0.4662,8.4333 C1.2082,5.1013 3.9352,3.3473 6.4322,1.9663 C7.7492,1.1933 8.8892,0.8783 10.0072,0.9923 C10.2672,1.0173 10.5292,1.0673 10.7802,1.1393 C12.8432,1.7263 14.4382,3.6143 16.8712,8.3513 C19.7162,13.8893 18.8712,15.8323 16.1812,17.6623 C15.9972,17.7863 15.8112,17.9133 15.6232,18.0523 L15.5042,18.1323 C15.3592,18.2173 15.1842,18.3573 15.0672,18.4763 C16.4012,20.1273 19.1362,23.7413 19.2562,23.8993 L19.3462,24.0183 C19.9892,24.7703 22.6892,27.9313 23.8602,29.2763 C24.0662,29.2293 24.4622,29.0053 24.6632,28.8303 L24.7622,28.7503 C24.9382,28.6263 25.0612,28.5343 25.1812,28.4453 L25.2872,28.3673 C26.3722,27.5663 27.4722,26.8543 29.0332,27.0143 C30.4832,27.1593 32.1432,28.0443 34.4142,29.8833 C37.7782,32.6083 39.6212,35.3203 39.7462,37.7263 C39.7742,38.2783 39.3502,38.7483 38.7982,38.7773 C38.2422,38.7993 37.7772,38.3823 37.7472,37.8303 C37.6552,36.0323 36.0242,33.7613 33.1552,31.4383 C31.2582,29.9013 29.8452,29.1053 28.8352,29.0053 C28.0452,28.9253 27.4712,29.2413 26.4732,29.9773 L26.3712,30.0523 C26.2372,30.1523 26.0982,30.2553 25.9532,30.3563 C25.9302,30.3783 24.8202,31.3603 23.6482,31.2813 C23.1282,31.2313 22.7212,31.0153 22.3902,30.6333 C21.1072,29.1613 17.8192,25.3103 17.6892,25.1573 L16.9582,24.3003 L17.0192,24.2603 C16.0592,23.0003 14.2712,20.6623 13.3922,19.5893 C13.0442,19.1663 12.9062,18.6903 12.9942,18.2163 C13.1842,17.1943 14.3262,16.5063 14.4552,16.4303 C14.6452,16.2883 14.8552,16.1433 15.0592,16.0063 C16.6182,14.9453 17.6492,14.2443 15.0912,9.2653 C13.0052,5.2043 11.6422,3.4653 10.2292,3.0623 C10.0882,3.0213 9.9512,2.9963 9.8112,2.9823 C9.1322,2.9123 8.3762,3.1453 7.4212,3.7043 C5.0962,4.9913 2.9802,6.3453 2.4192,8.8683 C1.5452,12.7883 4.6072,19.3153 12.0532,29.4123 C19.4122,38.3913 24.9682,42.7673 29.5702,43.2223 C29.7152,43.2373 29.8572,43.2483 29.9962,43.2543 C32.7032,43.3763 33.0902,43.1133 34.3742,42.2423 C34.5952,42.0923 34.8352,41.9303 35.1102,41.7543 C35.5722,41.4533 36.1922,41.5873 36.4922,42.0513 C36.7912,42.5153 36.6592,43.1343 36.1942,43.4333 C35.9342,43.6013 35.7052,43.7573 35.4962,43.8983 C34.1152,44.8343 33.3522,45.2793 31.0172,45.2793" id="Fill-71" fill="#005BC6"></path>
                    <path d="M20.0446,58.9434 C13.7496,58.9434 7.5076,57.3654 1.9926,54.3794 C1.5076,54.1164 1.3266,53.5094 1.5906,53.0234 C1.8536,52.5384 2.4606,52.3584 2.9456,52.6214 C8.1676,55.4484 14.0806,56.9434 20.0446,56.9434 C25.9816,56.9434 31.8696,55.4624 37.0716,52.6594 C37.5606,52.3974 38.1646,52.5804 38.4276,53.0654 C38.6896,53.5514 38.5076,54.1584 38.0216,54.4214 C32.5276,57.3794 26.3116,58.9434 20.0446,58.9434" id="Fill-72" fill="#FFB913"></path>
                </g>
            </g>
        </g>
    </g>
</svg>