<?xml version="1.0" encoding="UTF-8" standalone="no"?>
<svg width="38px" height="59px" viewBox="0 0 38 59" version="1.1" xmlns="http://www.w3.org/2000/svg" xmlns:xlink="http://www.w3.org/1999/xlink">
    <!-- Generator: Sketch 39.1 (31720) - http://www.bohemiancoding.com/sketch -->
    <title>Pin-LRG</title>
    <desc>Created with Sketch.</desc>
    <defs></defs>
    <g id="Style-guide" stroke="none" stroke-width="1" fill="none" fill-rule="evenodd">
        <g id="Icons" transform="translate(-302.000000, -598.000000)">
            <g id="Large" transform="translate(302.000000, 137.000000)">
                <g id="Pin-LRG" transform="translate(0.000000, 461.000000)">
                    <path d="M19.3809,45.5 L18.5919,44.481 C18.0349,43.762 4.9579,26.744 4.9579,14.982 C4.9579,6.997 11.4279,0.5 19.3809,0.5 C27.3339,0.5 33.8039,6.997 33.8039,14.982 C33.8039,19.514 31.8719,25.34 28.0639,32.298 C27.7979,32.784 27.1899,32.961 26.7059,32.694 C26.2219,32.428 26.0449,31.817 26.3119,31.331 C29.9559,24.672 31.8039,19.172 31.8039,14.982 C31.8039,8.104 26.2309,2.508 19.3809,2.508 C12.5309,2.508 6.9579,8.104 6.9579,14.982 C6.9579,24.456 16.5329,38.286 19.3819,42.188 C20.3619,40.847 22.1399,38.334 24.0359,35.245 C24.3259,34.773 24.9419,34.624 25.4119,34.916 C25.8829,35.208 26.0279,35.826 25.7389,36.298 C22.8339,41.029 20.2769,44.342 20.1699,44.481 L19.3809,45.5 Z" id="Fill-78" fill="#005BC6"></path>
                    <path d="M19.5996,12.991 C17.3936,12.991 15.5996,14.792 15.5996,17.008 C15.5996,19.223 17.3936,21.024 19.5996,21.024 C21.8056,21.024 23.5996,19.223 23.5996,17.008 C23.5996,14.792 21.8056,12.991 19.5996,12.991 M19.5996,23.032 C16.2906,23.032 13.5996,20.33 13.5996,17.008 C13.5996,13.685 16.2906,10.983 19.5996,10.983 C22.9086,10.983 25.5996,13.685 25.5996,17.008 C25.5996,20.33 22.9086,23.032 19.5996,23.032" id="Fill-79" fill="#005BC6"></path>
                    <path d="M19.3492,58.9434 C13.0522,58.9434 6.8112,57.3654 1.2972,54.3794 C0.8122,54.1164 0.6312,53.5094 0.8952,53.0234 C1.1572,52.5384 1.7652,52.3584 2.2502,52.6214 C7.4712,55.4484 13.3842,56.9434 19.3492,56.9434 C25.2862,56.9434 31.1742,55.4624 36.3752,52.6604 C36.8642,52.3954 37.4682,52.5804 37.7302,53.0654 C37.9932,53.5514 37.8112,54.1584 37.3252,54.4204 C31.8322,57.3794 25.6172,58.9434 19.3492,58.9434" id="Fill-80" fill="#FFB913"></path>
                </g>
            </g>
        </g>
    </g>
</svg>