<?xml version="1.0" encoding="UTF-8"?>
<svg width="45px" height="58px" viewBox="0 0 45 58" version="1.1" xmlns="http://www.w3.org/2000/svg" xmlns:xlink="http://www.w3.org/1999/xlink">
    <!-- Generator: sketchtool 41.1 (35376) - http://www.bohemiancoding.com/sketch -->
    <title>7381286F-8DEB-435B-BC25-72E526EEE0A9</title>
    <desc>Created with sketchtool.</desc>
    <defs></defs>
    <g id="Style-guide" stroke="none" stroke-width="1" fill="none" fill-rule="evenodd">
        <g id="Icons" transform="translate(-377.000000, -2680.000000)">
            <g id="Large" transform="translate(302.000000, 137.000000)">
                <g id="Question-LRG-Copy" transform="translate(75.000000, 2543.000000)">
                    <path d="M22.2537,44.5 C10.1227,44.5 0.2537,34.63 0.2537,22.5 C0.2537,10.37 10.1227,0.5 22.2537,0.5 C34.3847,0.5 44.2537,10.37 44.2537,22.5 C44.2537,29.095 41.3317,35.287 36.2377,39.485 C35.8087,39.839 35.1757,39.779 34.8217,39.349 C34.4677,38.92 34.5297,38.287 34.9577,37.933 C39.5867,34.118 42.2427,28.492 42.2427,22.5 C42.2427,11.478 33.2757,2.511 22.2537,2.511 C11.2317,2.511 2.2647,11.478 2.2647,22.5 C2.2647,33.522 11.2317,42.489 22.2537,42.489 C24.9637,42.489 27.5907,41.956 30.0637,40.906 C30.5757,40.687 31.1647,40.927 31.3827,41.439 C31.5997,41.949 31.3607,42.54 30.8497,42.757 C28.1277,43.914 25.2347,44.5 22.2537,44.5" id="Fill-15" fill="#FFFFFF"></path>
                    <path d="M22.2443,57.9434 C15.9483,57.9434 9.7053,56.3654 4.1923,53.3794 C3.7063,53.1164 3.5263,52.5094 3.7893,52.0234 C4.0523,51.5394 4.6583,51.3584 5.1443,51.6214 C10.3673,54.4484 16.2793,55.9434 22.2443,55.9434 C28.1813,55.9434 34.0693,54.4624 39.2713,51.6594 C39.7583,51.3974 40.3633,51.5804 40.6253,52.0654 C40.8873,52.5514 40.7053,53.1584 40.2193,53.4214 C34.7263,56.3794 28.5113,57.9434 22.2443,57.9434" id="Fill-19" fill="#FFB913"></path>
                    <text id="?" font-family="Montserrat-Regular, Montserrat" font-size="26" font-weight="normal" fill="#FFFFFF">
                        <tspan x="17" y="31">?</tspan>
                    </text>
                </g>
            </g>
        </g>
    </g>
</svg>