<?xml version="1.0" encoding="UTF-8"?>
<svg width="44px" height="58px" viewBox="0 0 44 58" version="1.1" xmlns="http://www.w3.org/2000/svg" xmlns:xlink="http://www.w3.org/1999/xlink">
    <!-- Generator: sketchtool 41.1 (35376) - http://www.bohemiancoding.com/sketch -->
    <title>AF88E5DE-F7E5-41DD-9ACC-AD2AE7F227EA</title>
    <desc>Created with sketchtool.</desc>
    <defs></defs>
    <g id="Style-guide" stroke="none" stroke-width="1" fill="none" fill-rule="evenodd">
        <g id="Icons" transform="translate(-302.000000, -2291.000000)">
            <g id="Large" transform="translate(302.000000, 137.000000)">
                <g id="SMS-LRG" transform="translate(0.000000, 2154.000000)">
                    <path d="M21.9279,57.4436 C15.6309,57.4436 9.3899,55.8656 3.8759,52.8796 C3.3909,52.6166 3.2099,52.0096 3.4739,51.5236 C3.7369,51.0386 4.3439,50.8586 4.8289,51.1216 C10.0499,53.9486 15.9629,55.4436 21.9279,55.4436 C27.8649,55.4436 33.7529,53.9626 38.9539,51.1606 C39.4439,50.8956 40.0469,51.0806 40.3089,51.5656 C40.5719,52.0516 40.3899,52.6586 39.9039,52.9206 C34.4109,55.8796 28.1959,57.4436 21.9279,57.4436" id="Fill-17" fill="#FFB913"></path>
                    <path d="M13.11,41.9702 C12.838,41.9702 12.614,41.9082 12.451,41.8412 C11.988,41.6512 11.211,41.0822 11.211,39.4232 L11.211,33.3442 C11.211,32.2412 10.313,31.3442 9.211,31.3442 L4.12,31.3442 C1.914,31.3442 0.12,29.5502 0.12,27.3442 L0.12,4.0422 C0.12,1.8362 1.914,0.0422 4.12,0.0422 L39.301,0.0422 C41.507,0.0422 43.301,1.8362 43.301,4.0422 L43.301,14.1322 C43.301,14.6852 42.854,15.1322 42.301,15.1322 C41.749,15.1322 41.301,14.6852 41.301,14.1322 L41.301,4.0422 C41.301,2.9402 40.404,2.0422 39.301,2.0422 L4.12,2.0422 C3.017,2.0422 2.12,2.9402 2.12,4.0422 L2.12,27.3442 C2.12,28.4472 3.017,29.3442 4.12,29.3442 L9.211,29.3442 C11.417,29.3442 13.211,31.1382 13.211,33.3442 L13.211,39.4232 C13.211,39.6332 13.231,39.7862 13.255,39.8912 C13.345,39.8332 13.467,39.7392 13.616,39.5902 L21.387,31.7672 C22.738,30.4082 25.296,29.3442 27.211,29.3442 L39.301,29.3442 C40.404,29.3442 41.301,28.4472 41.301,27.3442 L41.301,19.3012 C41.301,18.7482 41.749,18.3012 42.301,18.3012 C42.854,18.3012 43.301,18.7482 43.301,19.3012 L43.301,27.3442 C43.301,29.5502 41.507,31.3442 39.301,31.3442 L27.211,31.3442 C25.835,31.3442 23.776,32.2002 22.805,33.1772 L15.034,41.0002 C14.277,41.7622 13.611,41.9702 13.11,41.9702" id="Fill-26" fill="#005BC6"></path>
                    <path d="M15.6306,13.3483 L14.7906,15.0903 C13.8626,14.5513 12.6976,14.1753 11.9826,14.1753 C11.4066,14.1753 11.0186,14.3883 11.0186,14.8143 C11.0186,16.3313 15.6556,15.4673 15.6556,18.6383 C15.6556,20.3923 14.1016,21.3193 12.1456,21.3193 C10.6796,21.3193 9.1756,20.7693 8.1346,19.9163 L8.9996,18.1993 C9.9026,18.9893 11.2566,19.5153 12.1716,19.5153 C12.8726,19.5153 13.3126,19.2523 13.3126,18.7503 C13.3126,17.1963 8.6746,18.1243 8.6746,15.0153 C8.6746,13.3983 10.0646,12.3703 12.1716,12.3703 C13.4366,12.3703 14.7276,12.7593 15.6306,13.3483" id="Fill-28" fill="#005BC6"></path>
                    <polygon id="Fill-30" fill="#005BC6" points="24.543 21.2447 24.531 15.5417 22.424 20.3677 20.971 20.3677 18.865 15.5417 18.865 21.2447 16.872 21.2447 16.872 12.4577 19.316 12.4577 21.698 17.6847 24.079 12.4577 26.511 12.4577 26.511 21.2447"></polygon>
                    <path d="M35.1096,13.3483 L34.2696,15.0903 C33.3416,14.5513 32.1766,14.1753 31.4616,14.1753 C30.8856,14.1753 30.4976,14.3883 30.4976,14.8143 C30.4976,16.3313 35.1346,15.4673 35.1346,18.6383 C35.1346,20.3923 33.5806,21.3193 31.6246,21.3193 C30.1586,21.3193 28.6546,20.7693 27.6136,19.9163 L28.4786,18.1993 C29.3816,18.9893 30.7356,19.5153 31.6506,19.5153 C32.3516,19.5153 32.7916,19.2523 32.7916,18.7503 C32.7916,17.1963 28.1536,18.1243 28.1536,15.0153 C28.1536,13.3983 29.5436,12.3703 31.6506,12.3703 C32.9156,12.3703 34.2066,12.7593 35.1096,13.3483" id="Fill-32" fill="#005BC6"></path>
                </g>
            </g>
        </g>
    </g>
</svg>