<?xml version="1.0" encoding="UTF-8" standalone="no"?>
<svg width="45px" height="58px" viewBox="0 0 45 58" version="1.1" xmlns="http://www.w3.org/2000/svg" xmlns:xlink="http://www.w3.org/1999/xlink">
    <!-- Generator: sketchtool 40 (33762) - http://www.bohemiancoding.com/sketch -->
    <title>47C2C6FD-54A9-41A7-BF3F-79E71649A786</title>
    <desc>Created with sketchtool.</desc>
    <defs></defs>
    <g id="Style-guide" stroke="none" stroke-width="1" fill="none" fill-rule="evenodd">
        <g id="Icons" transform="translate(-302.000000, -828.000000)">
            <g id="Large" transform="translate(302.000000, 137.000000)">
                <g id="Tick-LRG" transform="translate(0.000000, 691.000000)">
                    <path d="M22.1136,44.5 C9.9826,44.5 0.1136,34.63 0.1136,22.5 C0.1136,10.37 9.9826,0.5 22.1136,0.5 C34.2446,0.5 44.1136,10.37 44.1136,22.5 C44.1136,29.095 41.1916,35.287 36.0966,39.485 C35.6686,39.838 35.0336,39.778 34.6806,39.349 C34.3276,38.92 34.3886,38.286 34.8176,37.933 C39.4466,34.118 42.1026,28.492 42.1026,22.5 C42.1026,11.478 33.1356,2.511 22.1136,2.511 C11.0916,2.511 2.1246,11.478 2.1246,22.5 C2.1246,33.522 11.0916,42.489 22.1136,42.489 C24.8236,42.489 27.4506,41.956 29.9236,40.906 C30.4356,40.686 31.0246,40.927 31.2426,41.439 C31.4596,41.949 31.2206,42.54 30.7096,42.757 C27.9876,43.914 25.0946,44.5 22.1136,44.5" id="Fill-9" fill="#FFFFFF"></path>
                    <path d="M20.4758,30.5 C20.1828,30.5 19.9038,30.267 19.7128,30.044 L14.9278,24.422 C14.5658,24 14.6148,23.34 15.0358,22.977 C15.4568,22.615 16.0918,22.651 16.4548,23.072 L20.4278,27.69 L31.1058,13.621 C31.4418,13.18 32.0728,13.092 32.5148,13.426 C32.9578,13.762 33.0438,14.392 32.7078,14.834 L21.2768,29.997 C21.0928,30.24 20.8098,30.5 20.5058,30.5 L20.4758,30.5 Z" id="Fill-11" fill="#FFFFFF"></path>
                    <path d="M22.0256,57.9434 C15.7296,57.9434 9.4876,56.3654 3.9746,53.3794 C3.4886,53.1164 3.3076,52.5094 3.5706,52.0234 C3.8346,51.5394 4.4416,51.3584 4.9266,51.6214 C10.1486,54.4484 16.0616,55.9434 22.0256,55.9434 C27.9626,55.9434 33.8506,54.4624 39.0526,51.6594 C39.5396,51.3974 40.1456,51.5804 40.4076,52.0654 C40.6696,52.5514 40.4876,53.1584 40.0016,53.4214 C34.5086,56.3794 28.2926,57.9434 22.0256,57.9434" id="Fill-13" fill="#FFB913"></path>
                </g>
            </g>
        </g>
    </g>
</svg>